<svg width="145" height="145" viewBox="0 0 145 145" fill="none" xmlns="http://www.w3.org/2000/svg">
<path d="M70.3349 6.75C71.2972 5.08333 73.7028 5.08333 74.6651 6.75L130.524 103.5C131.486 105.167 130.283 107.25 128.359 107.25H16.6414C14.7169 107.25 13.514 105.167 14.4763 103.5L70.3349 6.75Z" stroke="#FA01FF" stroke-width="3"/>
<path d="M45.6782 118.363C45.6782 118.866 45.583 119.34 45.3926 119.785C45.2021 120.225 44.9419 120.61 44.6118 120.94C44.286 121.266 43.9009 121.524 43.4565 121.714C43.0164 121.905 42.5446 122 42.041 122C41.7363 122 41.4316 121.962 41.127 121.886V119.931C41.2624 120.011 41.4084 120.072 41.5649 120.115C41.7215 120.157 41.8802 120.178 42.041 120.178C42.2907 120.178 42.5256 120.132 42.7456 120.039C42.9699 119.941 43.1646 119.81 43.3296 119.645C43.4946 119.48 43.6237 119.287 43.7168 119.067C43.8141 118.847 43.8628 118.612 43.8628 118.363V112.897H45.6782V118.363ZM53.562 122H53.1431L52.4702 121.067C52.3052 121.215 52.1296 121.355 51.9434 121.486C51.7614 121.613 51.5688 121.725 51.3657 121.822C51.1626 121.915 50.9531 121.989 50.7373 122.044C50.5257 122.099 50.3099 122.127 50.0898 122.127C49.6117 122.127 49.161 122.047 48.7378 121.886C48.3188 121.725 47.9507 121.492 47.6333 121.188C47.3201 120.879 47.0726 120.502 46.8906 120.058C46.7087 119.613 46.6177 119.108 46.6177 118.541C46.6177 118.012 46.7087 117.527 46.8906 117.087C47.0726 116.643 47.3201 116.262 47.6333 115.944C47.9507 115.627 48.3188 115.382 48.7378 115.208C49.161 115.03 49.6117 114.941 50.0898 114.941C50.3099 114.941 50.5278 114.969 50.7437 115.024C50.9595 115.079 51.1689 115.155 51.3721 115.252C51.5752 115.35 51.7677 115.464 51.9497 115.595C52.1359 115.726 52.3094 115.868 52.4702 116.021L53.1431 115.214H53.562V122ZM51.8164 118.541C51.8164 118.304 51.7699 118.075 51.6768 117.855C51.5879 117.631 51.4652 117.434 51.3086 117.265C51.152 117.091 50.9679 116.954 50.7563 116.852C50.549 116.746 50.3268 116.693 50.0898 116.693C49.8529 116.693 49.6286 116.734 49.417 116.814C49.2096 116.894 49.0277 117.013 48.8711 117.169C48.7188 117.326 48.5981 117.521 48.5093 117.753C48.4204 117.982 48.376 118.244 48.376 118.541C48.376 118.837 48.4204 119.101 48.5093 119.334C48.5981 119.562 48.7188 119.755 48.8711 119.912C49.0277 120.068 49.2096 120.187 49.417 120.267C49.6286 120.347 49.8529 120.388 50.0898 120.388C50.3268 120.388 50.549 120.337 50.7563 120.235C50.9679 120.13 51.152 119.992 51.3086 119.823C51.4652 119.649 51.5879 119.452 51.6768 119.232C51.7699 119.008 51.8164 118.778 51.8164 118.541ZM56.8184 122L54.2285 115.202H56.2026L57.688 119.442L59.167 115.202H61.1475L58.5576 122H56.8184ZM68.187 122H67.7681L67.0952 121.067C66.9302 121.215 66.7546 121.355 66.5684 121.486C66.3864 121.613 66.1938 121.725 65.9907 121.822C65.7876 121.915 65.5781 121.989 65.3623 122.044C65.1507 122.099 64.9349 122.127 64.7148 122.127C64.2367 122.127 63.786 122.047 63.3628 121.886C62.9438 121.725 62.5757 121.492 62.2583 121.188C61.9451 120.879 61.6976 120.502 61.5156 120.058C61.3337 119.613 61.2427 119.108 61.2427 118.541C61.2427 118.012 61.3337 117.527 61.5156 117.087C61.6976 116.643 61.9451 116.262 62.2583 115.944C62.5757 115.627 62.9438 115.382 63.3628 115.208C63.786 115.03 64.2367 114.941 64.7148 114.941C64.9349 114.941 65.1528 114.969 65.3687 115.024C65.5845 115.079 65.7939 115.155 65.9971 115.252C66.2002 115.35 66.3927 115.464 66.5747 115.595C66.7609 115.726 66.9344 115.868 67.0952 116.021L67.7681 115.214H68.187V122ZM66.4414 118.541C66.4414 118.304 66.3949 118.075 66.3018 117.855C66.2129 117.631 66.0902 117.434 65.9336 117.265C65.777 117.091 65.5929 116.954 65.3813 116.852C65.174 116.746 64.9518 116.693 64.7148 116.693C64.4779 116.693 64.2536 116.734 64.042 116.814C63.8346 116.894 63.6527 117.013 63.4961 117.169C63.3438 117.326 63.2231 117.521 63.1343 117.753C63.0454 117.982 63.001 118.244 63.001 118.541C63.001 118.837 63.0454 119.101 63.1343 119.334C63.2231 119.562 63.3438 119.755 63.4961 119.912C63.6527 120.068 63.8346 120.187 64.042 120.267C64.2536 120.347 64.4779 120.388 64.7148 120.388C64.9518 120.388 65.174 120.337 65.3813 120.235C65.5929 120.13 65.777 119.992 65.9336 119.823C66.0902 119.649 66.2129 119.452 66.3018 119.232C66.3949 119.008 66.4414 118.778 66.4414 118.541ZM73.2461 122H69.2852V120.273H73.2461C73.3646 120.273 73.4661 120.231 73.5508 120.146C73.6354 120.062 73.6777 119.96 73.6777 119.842C73.6777 119.719 73.6354 119.639 73.5508 119.601C73.4661 119.562 73.3646 119.543 73.2461 119.543H71.4434C71.1429 119.543 70.8615 119.486 70.5991 119.372C70.3368 119.258 70.1082 119.103 69.9136 118.909C69.7189 118.71 69.5645 118.479 69.4502 118.217C69.3402 117.954 69.2852 117.673 69.2852 117.373C69.2852 117.072 69.3402 116.791 69.4502 116.528C69.5645 116.266 69.7189 116.037 69.9136 115.843C70.1082 115.648 70.3368 115.496 70.5991 115.386C70.8615 115.271 71.1429 115.214 71.4434 115.214H74.9536V116.941H71.4434C71.3249 116.941 71.2233 116.983 71.1387 117.068C71.054 117.153 71.0117 117.254 71.0117 117.373C71.0117 117.495 71.054 117.601 71.1387 117.69C71.2233 117.775 71.3249 117.817 71.4434 117.817H73.2461C73.5423 117.817 73.8216 117.868 74.084 117.969C74.3464 118.067 74.5749 118.204 74.7695 118.382C74.9642 118.56 75.1187 118.773 75.2329 119.023C75.3472 119.273 75.4043 119.546 75.4043 119.842C75.4043 120.142 75.3472 120.424 75.2329 120.686C75.1187 120.944 74.9642 121.173 74.7695 121.372C74.5749 121.566 74.3464 121.721 74.084 121.835C73.8216 121.945 73.5423 122 73.2461 122ZM82.2725 116.554L81.0029 117.83C80.9395 117.652 80.8527 117.493 80.7427 117.354C80.6326 117.21 80.5078 117.089 80.3682 116.992C80.2327 116.894 80.0846 116.82 79.9238 116.77C79.763 116.719 79.598 116.693 79.4287 116.693C79.1917 116.693 78.9674 116.742 78.7559 116.839C78.5485 116.937 78.3665 117.074 78.21 117.252C78.0576 117.425 77.937 117.633 77.8481 117.874C77.7593 118.115 77.7148 118.382 77.7148 118.674C77.7148 118.911 77.7593 119.133 77.8481 119.34C77.937 119.548 78.0576 119.73 78.21 119.886C78.3665 120.043 78.5485 120.166 78.7559 120.254C78.9674 120.343 79.1917 120.388 79.4287 120.388C79.598 120.388 79.7609 120.364 79.9175 120.318C80.0741 120.271 80.2201 120.206 80.3555 120.121C80.4951 120.032 80.6178 119.926 80.7236 119.804C80.8337 119.677 80.9225 119.537 80.9902 119.385L82.2598 120.661C82.099 120.889 81.9128 121.094 81.7012 121.276C81.4938 121.458 81.2674 121.613 81.022 121.74C80.7808 121.867 80.5247 121.962 80.2539 122.025C79.9873 122.093 79.7122 122.127 79.4287 122.127C78.9505 122.127 78.4998 122.038 78.0767 121.86C77.6577 121.678 77.2896 121.431 76.9722 121.118C76.659 120.805 76.4115 120.438 76.2295 120.02C76.0475 119.601 75.9565 119.152 75.9565 118.674C75.9565 118.153 76.0475 117.667 76.2295 117.214C76.4115 116.761 76.659 116.368 76.9722 116.033C77.2896 115.695 77.6577 115.428 78.0767 115.233C78.4998 115.039 78.9505 114.941 79.4287 114.941C79.7122 114.941 79.9894 114.977 80.2603 115.049C80.5353 115.121 80.7956 115.227 81.041 115.367C81.2907 115.502 81.5192 115.669 81.7266 115.868C81.9382 116.067 82.1201 116.296 82.2725 116.554ZM84.856 122H83.123V115.202H83.542L84.1133 116.008C84.3926 115.754 84.71 115.559 85.0654 115.424C85.4209 115.284 85.7891 115.214 86.1699 115.214H87.6997V116.941H86.1699C85.988 116.941 85.8166 116.975 85.6558 117.042C85.495 117.11 85.3553 117.203 85.2368 117.322C85.1183 117.44 85.0252 117.58 84.9575 117.741C84.8898 117.902 84.856 118.073 84.856 118.255V122ZM90.5498 113.354C90.5498 113.515 90.5181 113.666 90.4546 113.805C90.3953 113.945 90.3128 114.068 90.207 114.173C90.1012 114.275 89.9764 114.357 89.8325 114.421C89.6929 114.48 89.5426 114.51 89.3818 114.51C89.221 114.51 89.0687 114.48 88.9248 114.421C88.7852 114.357 88.6624 114.275 88.5566 114.173C88.4551 114.068 88.3726 113.945 88.3091 113.805C88.2498 113.666 88.2202 113.515 88.2202 113.354C88.2202 113.198 88.2498 113.05 88.3091 112.91C88.3726 112.766 88.4551 112.644 88.5566 112.542C88.6624 112.436 88.7852 112.354 88.9248 112.294C89.0687 112.231 89.221 112.199 89.3818 112.199C89.5426 112.199 89.6929 112.231 89.8325 112.294C89.9764 112.354 90.1012 112.436 90.207 112.542C90.3128 112.644 90.3953 112.766 90.4546 112.91C90.5181 113.05 90.5498 113.198 90.5498 113.354ZM90.2515 122H88.5059V115.202H90.2515V122ZM93.3237 124.59H91.5781V115.202H91.9971L92.689 116.021C92.8455 115.872 93.0169 115.733 93.2031 115.602C93.3893 115.47 93.5819 115.358 93.7808 115.265C93.9839 115.168 94.1934 115.092 94.4092 115.037C94.625 114.982 94.8429 114.954 95.063 114.954C95.5412 114.954 95.9897 115.041 96.4087 115.214C96.8319 115.384 97.2 115.625 97.5132 115.938C97.8306 116.251 98.0802 116.63 98.2622 117.074C98.4442 117.514 98.5352 118.003 98.5352 118.541C98.5352 119.099 98.4442 119.603 98.2622 120.051C98.0802 120.496 97.8306 120.874 97.5132 121.188C97.2 121.496 96.8319 121.733 96.4087 121.898C95.9897 122.063 95.5412 122.146 95.063 122.146C94.9106 122.146 94.7583 122.129 94.606 122.095C94.4578 122.061 94.3097 122.017 94.1616 121.962C94.0177 121.903 93.8739 121.837 93.73 121.765C93.5903 121.693 93.4549 121.619 93.3237 121.543V124.59ZM96.7959 118.541C96.7959 118.253 96.7493 117.995 96.6562 117.766C96.5674 117.538 96.4447 117.345 96.2881 117.188C96.1315 117.028 95.9474 116.905 95.7358 116.82C95.5243 116.736 95.3 116.693 95.063 116.693C94.826 116.693 94.6017 116.736 94.3901 116.82C94.1828 116.905 94.0008 117.028 93.8442 117.188C93.6877 117.345 93.5628 117.538 93.4697 117.766C93.3809 117.995 93.3364 118.253 93.3364 118.541C93.3364 118.816 93.3809 119.067 93.4697 119.296C93.5628 119.524 93.6877 119.719 93.8442 119.88C94.0008 120.041 94.1828 120.166 94.3901 120.254C94.6017 120.343 94.826 120.388 95.063 120.388C95.3 120.388 95.5243 120.343 95.7358 120.254C95.9474 120.166 96.1315 120.041 96.2881 119.88C96.4447 119.719 96.5674 119.524 96.6562 119.296C96.7493 119.067 96.7959 118.816 96.7959 118.541ZM102.858 122C102.439 122 102.045 121.922 101.677 121.765C101.309 121.604 100.985 121.386 100.706 121.111C100.431 120.832 100.213 120.508 100.052 120.14C99.8957 119.772 99.8174 119.378 99.8174 118.959V116.941H98.9731V115.214H99.8174V112.498H101.544V115.214H104.172V116.941H101.544V118.959C101.544 119.141 101.578 119.313 101.646 119.474C101.713 119.63 101.806 119.768 101.925 119.886C102.043 120.005 102.183 120.1 102.344 120.172C102.505 120.24 102.676 120.273 102.858 120.273H104.172V122H102.858Z" fill="white"/>
<rect x="38" y="25" width="68" height="68" rx="13" fill="white"/>
<path d="M68.976 65.352C68.976 68.104 68.1867 70.1307 66.608 71.432C65.0507 72.7333 62.8 73.384 59.856 73.384C56.912 73.384 54.6507 72.7333 53.072 71.432C51.5147 70.1307 50.736 68.104 50.736 65.352V65.064H57.36V65.32C57.36 66.3227 57.5413 67.0373 57.904 67.464C58.288 67.8907 58.864 68.104 59.632 68.104C60.4 68.104 60.9653 67.8907 61.328 67.464C61.712 67.0373 61.904 66.3227 61.904 65.32V50.984H68.976V65.352ZM82.9598 50.6C85.7758 50.6 88.0904 51.176 89.9038 52.328C91.7171 53.4587 92.6451 55.144 92.6878 57.384V57.768H86.0638V57.64C86.0638 57 85.8291 56.4667 85.3598 56.04C84.8904 55.6133 84.1758 55.4 83.2158 55.4C82.2771 55.4 81.5518 55.5387 81.0398 55.816C80.5491 56.0933 80.3038 56.4347 80.3038 56.84C80.3038 57.416 80.6451 57.8427 81.3278 58.12C82.0104 58.3973 83.1091 58.6853 84.6238 58.984C86.3944 59.3467 87.8451 59.7307 88.9757 60.136C90.1278 60.52 91.1304 61.16 91.9838 62.056C92.8371 62.952 93.2744 64.168 93.2958 65.704C93.2958 68.3067 92.4104 70.2373 90.6398 71.496C88.8904 72.7547 86.5438 73.384 83.5998 73.384C80.1651 73.384 77.4878 72.808 75.5677 71.656C73.6691 70.504 72.7198 68.4667 72.7198 65.544H79.4078C79.4078 66.6533 79.6958 67.4 80.2718 67.784C80.8478 68.1467 81.7438 68.328 82.9598 68.328C83.8558 68.328 84.5918 68.232 85.1678 68.04C85.7651 67.848 86.0638 67.4533 86.0638 66.856C86.0638 66.3227 85.7331 65.928 85.0718 65.672C84.4318 65.3947 83.3758 65.1067 81.9038 64.808C80.1118 64.424 78.6291 64.0293 77.4558 63.624C76.2824 63.1973 75.2584 62.504 74.3838 61.544C73.5091 60.584 73.0718 59.2827 73.0718 57.64C73.0718 55.2293 73.9998 53.4587 75.8558 52.328C77.7331 51.176 80.1011 50.6 82.9598 50.6Z" fill="black"/>
</svg>
