<svg width="145" height="145" viewBox="0 0 145 145" fill="none" xmlns="http://www.w3.org/2000/svg">
<path d="M70.3349 6.75C71.2972 5.08333 73.7028 5.08333 74.6651 6.75L130.524 103.5C131.486 105.167 130.283 107.25 128.359 107.25H16.6414C14.7169 107.25 13.514 105.167 14.4763 103.5L70.3349 6.75Z" stroke="#FA01FF" stroke-width="3"/>
<path d="M47.877 122H46.0615V115.5C46.0615 115.373 46.0361 115.255 45.9854 115.145C45.9388 115.035 45.8732 114.939 45.7886 114.859C45.7082 114.774 45.613 114.709 45.5029 114.662C45.3929 114.616 45.2744 114.592 45.1475 114.592C45.0205 114.592 44.902 114.616 44.792 114.662C44.682 114.709 44.5846 114.774 44.5 114.859C44.4196 114.939 44.3561 115.035 44.3096 115.145C44.263 115.255 44.2397 115.373 44.2397 115.5V122H42.418V115.5C42.418 115.373 42.3947 115.255 42.3481 115.145C42.3016 115.035 42.236 114.939 42.1514 114.859C42.071 114.774 41.9757 114.709 41.8657 114.662C41.7557 114.616 41.6372 114.592 41.5103 114.592C41.3833 114.592 41.2648 114.616 41.1548 114.662C41.0448 114.709 40.9474 114.774 40.8628 114.859C40.7824 114.939 40.7189 115.035 40.6724 115.145C40.6258 115.255 40.6025 115.373 40.6025 115.5V122H38.7808V115.5C38.7808 115.123 38.8506 114.77 38.9902 114.44C39.1341 114.106 39.3288 113.816 39.5742 113.57C39.8239 113.321 40.1138 113.126 40.4438 112.986C40.7782 112.842 41.1336 112.771 41.5103 112.771C41.8488 112.771 42.1746 112.832 42.4878 112.955C42.8009 113.073 43.0824 113.247 43.332 113.475C43.5817 113.247 43.861 113.073 44.1699 112.955C44.4831 112.832 44.8089 112.771 45.1475 112.771C45.5241 112.771 45.8774 112.842 46.2075 112.986C46.5418 113.126 46.8317 113.321 47.0771 113.57C47.3268 113.816 47.5215 114.106 47.6611 114.44C47.805 114.77 47.877 115.123 47.877 115.5V122ZM55.8306 122H55.4116L54.7388 121.067C54.5737 121.215 54.3981 121.355 54.2119 121.486C54.0299 121.613 53.8374 121.725 53.6343 121.822C53.4312 121.915 53.2217 121.989 53.0059 122.044C52.7943 122.099 52.5785 122.127 52.3584 122.127C51.8802 122.127 51.4295 122.047 51.0063 121.886C50.5874 121.725 50.2192 121.492 49.9019 121.188C49.5887 120.879 49.3411 120.502 49.1592 120.058C48.9772 119.613 48.8862 119.108 48.8862 118.541C48.8862 118.012 48.9772 117.527 49.1592 117.087C49.3411 116.643 49.5887 116.262 49.9019 115.944C50.2192 115.627 50.5874 115.382 51.0063 115.208C51.4295 115.03 51.8802 114.941 52.3584 114.941C52.5785 114.941 52.7964 114.969 53.0122 115.024C53.228 115.079 53.4375 115.155 53.6406 115.252C53.8438 115.35 54.0363 115.464 54.2183 115.595C54.4045 115.726 54.578 115.868 54.7388 116.021L55.4116 115.214H55.8306V122ZM54.085 118.541C54.085 118.304 54.0384 118.075 53.9453 117.855C53.8564 117.631 53.7337 117.434 53.5771 117.265C53.4206 117.091 53.2365 116.954 53.0249 116.852C52.8175 116.746 52.5954 116.693 52.3584 116.693C52.1214 116.693 51.8971 116.734 51.6855 116.814C51.4782 116.894 51.2962 117.013 51.1396 117.169C50.9873 117.326 50.8667 117.521 50.7778 117.753C50.689 117.982 50.6445 118.244 50.6445 118.541C50.6445 118.837 50.689 119.101 50.7778 119.334C50.8667 119.562 50.9873 119.755 51.1396 119.912C51.2962 120.068 51.4782 120.187 51.6855 120.267C51.8971 120.347 52.1214 120.388 52.3584 120.388C52.5954 120.388 52.8175 120.337 53.0249 120.235C53.2365 120.13 53.4206 119.992 53.5771 119.823C53.7337 119.649 53.8564 119.452 53.9453 119.232C54.0384 119.008 54.085 118.778 54.085 118.541ZM60.5659 122C60.147 122 59.7534 121.922 59.3853 121.765C59.0171 121.604 58.6934 121.386 58.4141 121.111C58.139 120.832 57.9211 120.508 57.7603 120.14C57.6037 119.772 57.5254 119.378 57.5254 118.959V116.941H56.6812V115.214H57.5254V112.498H59.252V115.214H61.8799V116.941H59.252V118.959C59.252 119.141 59.2858 119.313 59.3535 119.474C59.4212 119.63 59.5143 119.768 59.6328 119.886C59.7513 120.005 59.891 120.1 60.0518 120.172C60.2126 120.24 60.384 120.273 60.5659 120.273H61.8799V122H60.5659ZM65.5615 120.337C65.6292 120.358 65.6969 120.373 65.7646 120.381C65.8324 120.386 65.9001 120.388 65.9678 120.388C66.137 120.388 66.3 120.364 66.4565 120.318C66.6131 120.271 66.7591 120.206 66.8945 120.121C67.0342 120.032 67.1569 119.926 67.2627 119.804C67.3727 119.677 67.4616 119.537 67.5293 119.385L68.7988 120.661C68.638 120.889 68.4518 121.094 68.2402 121.276C68.0329 121.458 67.8065 121.613 67.561 121.74C67.3198 121.867 67.0638 121.962 66.793 122.025C66.5264 122.093 66.2513 122.127 65.9678 122.127C65.4896 122.127 65.0389 122.038 64.6157 121.86C64.1968 121.683 63.8286 121.435 63.5112 121.118C63.1981 120.8 62.9505 120.424 62.7686 119.988C62.5866 119.548 62.4956 119.065 62.4956 118.541C62.4956 118.003 62.5866 117.512 62.7686 117.068C62.9505 116.624 63.1981 116.245 63.5112 115.932C63.8286 115.618 64.1968 115.375 64.6157 115.202C65.0389 115.028 65.4896 114.941 65.9678 114.941C66.2513 114.941 66.5285 114.975 66.7993 115.043C67.0701 115.111 67.3262 115.208 67.5674 115.335C67.8128 115.462 68.0413 115.618 68.2529 115.805C68.4645 115.987 68.6507 116.192 68.8115 116.42L65.5615 120.337ZM66.4502 116.763C66.3698 116.734 66.2894 116.715 66.209 116.706C66.1328 116.698 66.0524 116.693 65.9678 116.693C65.7308 116.693 65.5065 116.738 65.2949 116.827C65.0876 116.911 64.9056 117.034 64.749 117.195C64.5967 117.356 64.4761 117.55 64.3872 117.779C64.2983 118.003 64.2539 118.257 64.2539 118.541C64.2539 118.604 64.256 118.676 64.2603 118.756C64.2687 118.837 64.2793 118.919 64.292 119.004C64.3089 119.084 64.328 119.163 64.3491 119.239C64.3703 119.315 64.3978 119.383 64.4316 119.442L66.4502 116.763ZM71.4204 122H69.6875V115.202H70.1064L70.6777 116.008C70.957 115.754 71.2744 115.559 71.6299 115.424C71.9854 115.284 72.3535 115.214 72.7344 115.214H74.2642V116.941H72.7344C72.5524 116.941 72.381 116.975 72.2202 117.042C72.0594 117.11 71.9198 117.203 71.8013 117.322C71.6828 117.44 71.5897 117.58 71.522 117.741C71.4543 117.902 71.4204 118.073 71.4204 118.255V122ZM77.1143 113.354C77.1143 113.515 77.0825 113.666 77.019 113.805C76.9598 113.945 76.8773 114.068 76.7715 114.173C76.6657 114.275 76.5409 114.357 76.397 114.421C76.2573 114.48 76.1071 114.51 75.9463 114.51C75.7855 114.51 75.6331 114.48 75.4893 114.421C75.3496 114.357 75.2269 114.275 75.1211 114.173C75.0195 114.068 74.937 113.945 74.8735 113.805C74.8143 113.666 74.7847 113.515 74.7847 113.354C74.7847 113.198 74.8143 113.05 74.8735 112.91C74.937 112.766 75.0195 112.644 75.1211 112.542C75.2269 112.436 75.3496 112.354 75.4893 112.294C75.6331 112.231 75.7855 112.199 75.9463 112.199C76.1071 112.199 76.2573 112.231 76.397 112.294C76.5409 112.354 76.6657 112.436 76.7715 112.542C76.8773 112.644 76.9598 112.766 77.019 112.91C77.0825 113.05 77.1143 113.198 77.1143 113.354ZM76.8159 122H75.0703V115.202H76.8159V122ZM84.7251 122H84.3062L83.6333 121.067C83.4683 121.215 83.2926 121.355 83.1064 121.486C82.9245 121.613 82.7319 121.725 82.5288 121.822C82.3257 121.915 82.1162 121.989 81.9004 122.044C81.6888 122.099 81.473 122.127 81.2529 122.127C80.7747 122.127 80.3241 122.047 79.9009 121.886C79.4819 121.725 79.1138 121.492 78.7964 121.188C78.4832 120.879 78.2357 120.502 78.0537 120.058C77.8717 119.613 77.7808 119.108 77.7808 118.541C77.7808 118.012 77.8717 117.527 78.0537 117.087C78.2357 116.643 78.4832 116.262 78.7964 115.944C79.1138 115.627 79.4819 115.382 79.9009 115.208C80.3241 115.03 80.7747 114.941 81.2529 114.941C81.473 114.941 81.6909 114.969 81.9067 115.024C82.1226 115.079 82.332 115.155 82.5352 115.252C82.7383 115.35 82.9308 115.464 83.1128 115.595C83.299 115.726 83.4725 115.868 83.6333 116.021L84.3062 115.214H84.7251V122ZM82.9795 118.541C82.9795 118.304 82.9329 118.075 82.8398 117.855C82.751 117.631 82.6283 117.434 82.4717 117.265C82.3151 117.091 82.131 116.954 81.9194 116.852C81.7121 116.746 81.4899 116.693 81.2529 116.693C81.016 116.693 80.7917 116.734 80.5801 116.814C80.3727 116.894 80.1908 117.013 80.0342 117.169C79.8818 117.326 79.7612 117.521 79.6724 117.753C79.5835 117.982 79.5391 118.244 79.5391 118.541C79.5391 118.837 79.5835 119.101 79.6724 119.334C79.7612 119.562 79.8818 119.755 80.0342 119.912C80.1908 120.068 80.3727 120.187 80.5801 120.267C80.7917 120.347 81.016 120.388 81.2529 120.388C81.4899 120.388 81.7121 120.337 81.9194 120.235C82.131 120.13 82.3151 119.992 82.4717 119.823C82.6283 119.649 82.751 119.452 82.8398 119.232C82.9329 119.008 82.9795 118.778 82.9795 118.541ZM87.7974 122H86.0518V112.498H87.7974V122ZM100.131 118.363C100.131 118.866 100.036 119.34 99.8452 119.785C99.6548 120.225 99.3945 120.61 99.0645 120.94C98.7344 121.266 98.3472 121.524 97.9028 121.714C97.4627 121.905 96.9909 122 96.4873 122C95.9837 122 95.5098 121.905 95.0654 121.714C94.6253 121.524 94.2402 121.266 93.9102 120.94C93.5843 120.61 93.3262 120.225 93.1357 119.785C92.9453 119.34 92.8501 118.866 92.8501 118.363V112.897H94.6655V118.363C94.6655 118.612 94.7121 118.847 94.8052 119.067C94.9025 119.287 95.0337 119.48 95.1987 119.645C95.3638 119.81 95.5563 119.941 95.7764 120.039C96.0007 120.132 96.2376 120.178 96.4873 120.178C96.737 120.178 96.9718 120.132 97.1919 120.039C97.4162 119.941 97.6108 119.81 97.7759 119.645C97.9409 119.48 98.07 119.287 98.1631 119.067C98.2604 118.847 98.3091 118.612 98.3091 118.363V112.897H100.131V118.363ZM103.533 122H101.711V112.897H103.533V122Z" fill="white"/>
<rect x="38" y="24" width="68" height="68" rx="13" fill="white"/>
<path d="M64 68.22V65.74L76 58.82V49.46L66 55.24L56 49.46V61L54 62.16L52 61V45L54.14 43.76L66 50.62L73.86 46.08L77.86 43.76L80 45V61.12L69.84 67L77.94 71.66L88 65.86V57L90 55.84L92 57V68.16L77.94 76.28L64 68.22ZM92 54.5L90 55.66L88 54.5V52.16L90 51L92 52.16V54.5Z" fill="black"/>
</svg>
