<svg width="145" height="145" viewBox="0 0 145 145" fill="none" xmlns="http://www.w3.org/2000/svg">
<path d="M70.3349 6.75C71.2972 5.08333 73.7028 5.08333 74.6651 6.75L130.524 103.5C131.486 105.167 130.283 107.25 128.359 107.25H16.6414C14.7169 107.25 13.514 105.167 14.4763 103.5L70.3349 6.75Z" stroke="#FA01FF" stroke-width="3"/>
<rect x="39" y="25" width="68" height="68" rx="13" fill="white"/>
<path d="M53.666 115.719V119.363H55.4878C55.7375 119.363 55.9723 119.316 56.1924 119.223C56.4124 119.126 56.605 118.995 56.77 118.83C56.9351 118.665 57.0641 118.472 57.1572 118.252C57.2546 118.028 57.3032 117.791 57.3032 117.541C57.3032 117.291 57.2546 117.056 57.1572 116.836C57.0641 116.612 56.9351 116.417 56.77 116.252C56.605 116.087 56.4124 115.958 56.1924 115.865C55.9723 115.768 55.7375 115.719 55.4878 115.719H53.666ZM53.666 123H51.8442V113.897H55.4878C55.8221 113.897 56.1437 113.942 56.4526 114.031C56.7616 114.115 57.0493 114.238 57.3159 114.399C57.5868 114.556 57.8322 114.746 58.0522 114.97C58.2765 115.19 58.467 115.436 58.6235 115.707C58.7843 115.977 58.9071 116.267 58.9917 116.576C59.0806 116.885 59.125 117.207 59.125 117.541C59.125 117.854 59.0848 118.159 59.0044 118.455C58.9282 118.751 58.8161 119.033 58.668 119.299C58.5241 119.566 58.3464 119.811 58.1348 120.036C57.9232 120.26 57.6862 120.455 57.4238 120.62L58.4331 123H56.4971L55.7036 121.166L53.666 121.178V123ZM63.9386 121.337C64.0063 121.358 64.074 121.373 64.1417 121.381C64.2094 121.386 64.2771 121.388 64.3448 121.388C64.5141 121.388 64.677 121.364 64.8336 121.318C64.9901 121.271 65.1361 121.206 65.2716 121.121C65.4112 121.032 65.5339 120.926 65.6397 120.804C65.7498 120.677 65.8386 120.537 65.9063 120.385L67.1759 121.661C67.0151 121.889 66.8289 122.094 66.6173 122.276C66.4099 122.458 66.1835 122.613 65.9381 122.74C65.6969 122.867 65.4408 122.962 65.17 123.025C64.9034 123.093 64.6283 123.127 64.3448 123.127C63.8666 123.127 63.4159 123.038 62.9928 122.86C62.5738 122.683 62.2056 122.435 61.8883 122.118C61.5751 121.8 61.3276 121.424 61.1456 120.988C60.9636 120.548 60.8726 120.065 60.8726 119.541C60.8726 119.003 60.9636 118.512 61.1456 118.068C61.3276 117.624 61.5751 117.245 61.8883 116.932C62.2056 116.618 62.5738 116.375 62.9928 116.202C63.4159 116.028 63.8666 115.941 64.3448 115.941C64.6283 115.941 64.9055 115.975 65.1763 116.043C65.4472 116.111 65.7032 116.208 65.9444 116.335C66.1899 116.462 66.4184 116.618 66.63 116.805C66.8415 116.987 67.0277 117.192 67.1886 117.42L63.9386 121.337ZM64.8272 117.763C64.7468 117.734 64.6664 117.715 64.586 117.706C64.5098 117.698 64.4294 117.693 64.3448 117.693C64.1078 117.693 63.8835 117.738 63.672 117.827C63.4646 117.911 63.2826 118.034 63.1261 118.195C62.9737 118.356 62.8531 118.55 62.7642 118.779C62.6754 119.003 62.6309 119.257 62.6309 119.541C62.6309 119.604 62.6331 119.676 62.6373 119.756C62.6457 119.837 62.6563 119.919 62.669 120.004C62.686 120.084 62.705 120.163 62.7262 120.239C62.7473 120.315 62.7748 120.383 62.8087 120.442L64.8272 117.763ZM75.1252 117.554L73.8556 118.83C73.7921 118.652 73.7054 118.493 73.5954 118.354C73.4853 118.21 73.3605 118.089 73.2209 117.992C73.0854 117.894 72.9373 117.82 72.7765 117.77C72.6157 117.719 72.4507 117.693 72.2814 117.693C72.0444 117.693 71.8201 117.742 71.6086 117.839C71.4012 117.937 71.2192 118.074 71.0627 118.252C70.9103 118.425 70.7897 118.633 70.7008 118.874C70.612 119.115 70.5675 119.382 70.5675 119.674C70.5675 119.911 70.612 120.133 70.7008 120.34C70.7897 120.548 70.9103 120.73 71.0627 120.886C71.2192 121.043 71.4012 121.166 71.6086 121.254C71.8201 121.343 72.0444 121.388 72.2814 121.388C72.4507 121.388 72.6136 121.364 72.7702 121.318C72.9268 121.271 73.0727 121.206 73.2082 121.121C73.3478 121.032 73.4705 120.926 73.5763 120.804C73.6864 120.677 73.7752 120.537 73.8429 120.385L75.1125 121.661C74.9517 121.889 74.7655 122.094 74.5539 122.276C74.3465 122.458 74.1201 122.613 73.8747 122.74C73.6335 122.867 73.3774 122.962 73.1066 123.025C72.84 123.093 72.5649 123.127 72.2814 123.127C71.8032 123.127 71.3525 123.038 70.9294 122.86C70.5104 122.678 70.1422 122.431 69.8249 122.118C69.5117 121.805 69.2642 121.438 69.0822 121.02C68.9002 120.601 68.8092 120.152 68.8092 119.674C68.8092 119.153 68.9002 118.667 69.0822 118.214C69.2642 117.761 69.5117 117.368 69.8249 117.033C70.1422 116.695 70.5104 116.428 70.9294 116.233C71.3525 116.039 71.8032 115.941 72.2814 115.941C72.5649 115.941 72.8421 115.977 73.1129 116.049C73.388 116.121 73.6483 116.227 73.8937 116.367C74.1434 116.502 74.3719 116.669 74.5793 116.868C74.7908 117.067 74.9728 117.296 75.1252 117.554ZM83.614 119.541C83.614 120.048 83.523 120.522 83.3411 120.962C83.1591 121.398 82.9115 121.777 82.5984 122.099C82.2852 122.416 81.9171 122.668 81.4939 122.854C81.0749 123.036 80.6243 123.127 80.1418 123.127C79.6636 123.127 79.213 123.036 78.7898 122.854C78.3708 122.668 78.0027 122.416 77.6853 122.099C77.3721 121.777 77.1246 121.398 76.9426 120.962C76.7607 120.522 76.6697 120.048 76.6697 119.541C76.6697 119.024 76.7607 118.546 76.9426 118.106C77.1246 117.666 77.3721 117.287 77.6853 116.97C78.0027 116.648 78.3708 116.396 78.7898 116.214C79.213 116.032 79.6636 115.941 80.1418 115.941C80.6243 115.941 81.0749 116.028 81.4939 116.202C81.9171 116.371 82.2852 116.614 82.5984 116.932C82.9115 117.245 83.1591 117.624 83.3411 118.068C83.523 118.508 83.614 118.999 83.614 119.541ZM81.8684 119.541C81.8684 119.261 81.8218 119.009 81.7288 118.785C81.6399 118.557 81.5172 118.362 81.3606 118.201C81.204 118.036 81.0199 117.911 80.8083 117.827C80.601 117.738 80.3788 117.693 80.1418 117.693C79.9049 117.693 79.6806 117.738 79.469 117.827C79.2616 117.911 79.0797 118.036 78.9231 118.201C78.7707 118.362 78.6501 118.557 78.5613 118.785C78.4724 119.009 78.428 119.261 78.428 119.541C78.428 119.803 78.4724 120.046 78.5613 120.271C78.6501 120.495 78.7707 120.689 78.9231 120.854C79.0797 121.02 79.2616 121.151 79.469 121.248C79.6806 121.341 79.9049 121.388 80.1418 121.388C80.3788 121.388 80.601 121.343 80.8083 121.254C81.0199 121.166 81.204 121.041 81.3606 120.88C81.5172 120.719 81.6399 120.524 81.7288 120.296C81.8218 120.067 81.8684 119.816 81.8684 119.541ZM87.7864 114.354C87.7864 114.515 87.7547 114.666 87.6912 114.805C87.632 114.945 87.5495 115.068 87.4437 115.173C87.3379 115.275 87.213 115.357 87.0692 115.421C86.9295 115.48 86.7793 115.51 86.6185 115.51C86.4577 115.51 86.3053 115.48 86.1614 115.421C86.0218 115.357 85.8991 115.275 85.7933 115.173C85.6917 115.068 85.6092 114.945 85.5457 114.805C85.4865 114.666 85.4569 114.515 85.4569 114.354C85.4569 114.198 85.4865 114.05 85.5457 113.91C85.6092 113.766 85.6917 113.644 85.7933 113.542C85.8991 113.436 86.0218 113.354 86.1614 113.294C86.3053 113.231 86.4577 113.199 86.6185 113.199C86.7793 113.199 86.9295 113.231 87.0692 113.294C87.213 113.354 87.3379 113.436 87.4437 113.542C87.5495 113.644 87.632 113.766 87.6912 113.91C87.7547 114.05 87.7864 114.198 87.7864 114.354ZM87.4881 123H85.7425V116.202H87.4881V123ZM91.7304 123H89.9848V113.498H91.7304V123Z" fill="white"/>
<path d="M66.0981 55.5839C66.5622 55.4912 67.0382 55.4245 67.5158 55.3854L71.2221 55.0469L66.1878 49.7452C64.6735 48.144 63.8367 46.0708 63.8367 43.9065H59.6748C59.6748 47.0683 60.8995 50.1048 63.1185 52.4433L66.0981 55.5839Z" fill="#1D1F21"/>
<path d="M79.0987 63.351C78.7261 63.4177 78.3449 63.4632 77.9638 63.5039L73.9527 63.8701L78.9734 69.1588C80.4877 70.76 81.3245 72.8332 81.3245 74.9975H85.4949C85.4949 71.8356 84.2702 68.8056 82.0512 66.4607L79.0987 63.351Z" fill="#1D1F21"/>
<path d="M85.9929 51.5987C85.3085 48.3295 82.639 45.952 79.1953 45.5338L78.5584 45.454C76.4071 45.1953 74.7827 43.4281 74.7827 41.3484V39.2166C76.6917 38.4534 78.0333 36.6455 78.0333 34.5398C78.0333 31.7425 75.6753 29.4773 72.7635 29.4773C69.8517 29.4773 67.4938 31.7425 67.4938 34.5398C67.4938 36.5999 68.7795 38.3737 70.6191 39.1629V41.3484C70.6191 45.4475 73.807 48.9218 78.0383 49.4263L78.6752 49.506C80.6605 49.7452 81.648 51.1528 81.9123 52.3896C82.1748 53.6247 81.836 55.2926 80.0998 56.256C79.2495 56.7279 78.3297 57.0127 77.354 57.0989L67.7903 57.963C66.2132 58.1095 64.7192 58.5667 63.3506 59.3251C60.3422 60.9995 58.8414 64.1874 59.5342 67.4566C60.2186 70.7259 62.8881 73.1033 66.3318 73.5215L66.9687 73.6013C69.12 73.86 70.7444 75.6273 70.7444 77.7069V79.6467C68.8422 80.4099 67.5074 82.2178 67.5074 84.317C67.5074 87.1143 69.8653 89.3795 72.7771 89.3795C75.6889 89.3795 78.0468 87.1143 78.0468 84.317C78.0468 82.2503 76.7544 80.4701 74.908 79.6874V77.7069C74.908 73.6078 71.7201 70.1335 67.4888 69.6291L66.8518 69.5493C64.8666 69.3101 63.8791 67.9025 63.6148 66.6658C63.3523 65.4307 63.691 63.7627 65.4273 62.7993C66.2776 62.3274 67.1974 62.0426 68.1731 61.9564L77.7368 61.0923C79.3138 60.9459 80.8078 60.4886 82.1765 59.7303C85.1832 58.0558 86.6772 54.8663 85.9929 51.5987Z" fill="#1D1F21"/>
</svg>
