<svg width="145" height="145" viewBox="0 0 145 145" fill="none" xmlns="http://www.w3.org/2000/svg">
<path d="M70.3349 6.75C71.2972 5.08333 73.7028 5.08333 74.6651 6.75L130.524 103.5C131.486 105.167 130.283 107.25 128.359 107.25H16.6414C14.7169 107.25 13.514 105.167 14.4763 103.5L70.3349 6.75Z" stroke="#FA01FF" stroke-width="3"/>
<path d="M50.311 115.627C50.311 115.25 50.383 114.897 50.5269 114.567C50.6707 114.237 50.8654 113.949 51.1108 113.704C51.3605 113.454 51.6504 113.257 51.9805 113.113C52.3105 112.969 52.6639 112.897 53.0405 112.897H57.2173V114.719H53.0405C52.9136 114.719 52.7951 114.743 52.6851 114.789C52.575 114.836 52.4777 114.901 52.3931 114.986C52.3127 115.066 52.2492 115.161 52.2026 115.271C52.1561 115.382 52.1328 115.5 52.1328 115.627C52.1328 115.754 52.1561 115.875 52.2026 115.989C52.2492 116.099 52.3127 116.196 52.3931 116.281C52.4777 116.361 52.575 116.425 52.6851 116.471C52.7951 116.518 52.9136 116.541 53.0405 116.541H54.8623C55.2389 116.541 55.5923 116.613 55.9224 116.757C56.2567 116.896 56.5465 117.091 56.792 117.341C57.0417 117.586 57.2363 117.876 57.376 118.21C57.5199 118.541 57.5918 118.894 57.5918 119.271C57.5918 119.647 57.5199 120 57.376 120.331C57.2363 120.661 57.0417 120.951 56.792 121.2C56.5465 121.446 56.2567 121.64 55.9224 121.784C55.5923 121.928 55.2389 122 54.8623 122H50.8188V120.178H54.8623C54.9893 120.178 55.1077 120.155 55.2178 120.108C55.3278 120.062 55.423 119.998 55.5034 119.918C55.5881 119.833 55.6536 119.736 55.7002 119.626C55.7467 119.516 55.77 119.397 55.77 119.271C55.77 119.144 55.7467 119.025 55.7002 118.915C55.6536 118.805 55.5881 118.71 55.5034 118.629C55.423 118.545 55.3278 118.479 55.2178 118.433C55.1077 118.386 54.9893 118.363 54.8623 118.363H53.0405C52.6639 118.363 52.3105 118.291 51.9805 118.147C51.6504 118.003 51.3605 117.808 51.1108 117.563C50.8654 117.313 50.6707 117.023 50.5269 116.693C50.383 116.359 50.311 116.004 50.311 115.627ZM67.2689 118.363V116.541C67.2689 116.291 67.2203 116.056 67.1229 115.836C67.0298 115.612 66.9008 115.417 66.7357 115.252C66.5707 115.087 66.376 114.958 66.1517 114.865C65.9317 114.768 65.6968 114.719 65.4471 114.719C65.1975 114.719 64.9605 114.768 64.7362 114.865C64.5162 114.958 64.3236 115.087 64.1586 115.252C63.9935 115.417 63.8624 115.612 63.765 115.836C63.6719 116.056 63.6254 116.291 63.6254 116.541V118.363H67.2689ZM69.0907 122H67.2689V120.178H63.6254V122H61.8099V116.541C61.8099 116.037 61.9052 115.566 62.0956 115.125C62.286 114.681 62.5442 114.294 62.87 113.964C63.2001 113.634 63.5852 113.374 64.0253 113.183C64.4696 112.993 64.9436 112.897 65.4471 112.897C65.9507 112.897 66.4226 112.993 66.8627 113.183C67.307 113.374 67.6942 113.634 68.0243 113.964C68.3544 114.294 68.6146 114.681 68.8051 115.125C68.9955 115.566 69.0907 116.037 69.0907 116.541V122ZM73.2581 115.627C73.2581 115.25 73.33 114.897 73.4739 114.567C73.6178 114.237 73.8124 113.949 74.0579 113.704C74.3075 113.454 74.5974 113.257 74.9275 113.113C75.2576 112.969 75.6109 112.897 75.9876 112.897H80.1643V114.719H75.9876C75.8606 114.719 75.7421 114.743 75.6321 114.789C75.5221 114.836 75.4247 114.901 75.3401 114.986C75.2597 115.066 75.1962 115.161 75.1497 115.271C75.1031 115.382 75.0798 115.5 75.0798 115.627C75.0798 115.754 75.1031 115.875 75.1497 115.989C75.1962 116.099 75.2597 116.196 75.3401 116.281C75.4247 116.361 75.5221 116.425 75.6321 116.471C75.7421 116.518 75.8606 116.541 75.9876 116.541H77.8093C78.186 116.541 78.5393 116.613 78.8694 116.757C79.2037 116.896 79.4936 117.091 79.739 117.341C79.9887 117.586 80.1834 117.876 80.323 118.21C80.4669 118.541 80.5388 118.894 80.5388 119.271C80.5388 119.647 80.4669 120 80.323 120.331C80.1834 120.661 79.9887 120.951 79.739 121.2C79.4936 121.446 79.2037 121.64 78.8694 121.784C78.5393 121.928 78.186 122 77.8093 122H73.7659V120.178H77.8093C77.9363 120.178 78.0548 120.155 78.1648 120.108C78.2748 120.062 78.37 119.998 78.4504 119.918C78.5351 119.833 78.6007 119.736 78.6472 119.626C78.6938 119.516 78.7171 119.397 78.7171 119.271C78.7171 119.144 78.6938 119.025 78.6472 118.915C78.6007 118.805 78.5351 118.71 78.4504 118.629C78.37 118.545 78.2748 118.479 78.1648 118.433C78.0548 118.386 77.9363 118.363 77.8093 118.363H75.9876C75.6109 118.363 75.2576 118.291 74.9275 118.147C74.5974 118.003 74.3075 117.808 74.0579 117.563C73.8124 117.313 73.6178 117.023 73.4739 116.693C73.33 116.359 73.2581 116.004 73.2581 115.627ZM84.3253 115.627C84.3253 115.25 84.3973 114.897 84.5412 114.567C84.685 114.237 84.8797 113.949 85.1251 113.704C85.3748 113.454 85.6647 113.257 85.9948 113.113C86.3248 112.969 86.6782 112.897 87.0548 112.897H91.2316V114.719H87.0548C86.9279 114.719 86.8094 114.743 86.6994 114.789C86.5893 114.836 86.492 114.901 86.4074 114.986C86.327 115.066 86.2635 115.161 86.2169 115.271C86.1704 115.382 86.1471 115.5 86.1471 115.627C86.1471 115.754 86.1704 115.875 86.2169 115.989C86.2635 116.099 86.327 116.196 86.4074 116.281C86.492 116.361 86.5893 116.425 86.6994 116.471C86.8094 116.518 86.9279 116.541 87.0548 116.541H88.8766C89.2532 116.541 89.6066 116.613 89.9367 116.757C90.271 116.896 90.5608 117.091 90.8063 117.341C91.056 117.586 91.2506 117.876 91.3903 118.21C91.5342 118.541 91.6061 118.894 91.6061 119.271C91.6061 119.647 91.5342 120 91.3903 120.331C91.2506 120.661 91.056 120.951 90.8063 121.2C90.5608 121.446 90.271 121.64 89.9367 121.784C89.6066 121.928 89.2532 122 88.8766 122H84.8331V120.178H88.8766C89.0036 120.178 89.122 120.155 89.2321 120.108C89.3421 120.062 89.4373 119.998 89.5177 119.918C89.6024 119.833 89.6679 119.736 89.7145 119.626C89.761 119.516 89.7843 119.397 89.7843 119.271C89.7843 119.144 89.761 119.025 89.7145 118.915C89.6679 118.805 89.6024 118.71 89.5177 118.629C89.4373 118.545 89.3421 118.479 89.2321 118.433C89.122 118.386 89.0036 118.363 88.8766 118.363H87.0548C86.6782 118.363 86.3248 118.291 85.9948 118.147C85.6647 118.003 85.3748 117.808 85.1251 117.563C84.8797 117.313 84.685 117.023 84.5412 116.693C84.3973 116.359 84.3253 116.004 84.3253 115.627Z" fill="white"/>
<rect x="39" y="25" width="68" height="68" rx="13" fill="white"/>
<g clip-path="url(#clip0_64_10)">
<path d="M102.976 64.9962C102.794 63.5088 101.966 62.3552 100.702 61.4507C101.014 61.6738 101.279 61.8626 100.696 61.4462C99.9096 60.885 100.326 61.1825 100.691 61.4427C97.5736 59.2223 93.5075 59.7158 90.1106 60.9493C88.7492 58.7296 88.6901 57.0356 89.4745 54.6125C89.5761 54.3062 89.5067 54.1362 89.1875 53.9995C88.4124 53.6681 87.2963 53.8434 86.5163 54.0502C86.247 54.1208 86.051 54.258 85.9913 54.5293C85.4276 57.1809 83.6935 59.6096 82.182 61.845C81.1177 59.8049 81.202 58.2261 81.918 56.1011C82.0053 55.8423 81.9651 55.7047 81.7061 55.5674C80.912 55.1565 79.6935 55.3583 78.8842 55.5976C77.9536 55.8691 76.5556 60.4751 76.1092 61.3886C75.1761 63.2963 74.3492 66.2738 72.7639 67.7872C71.4186 66.0583 75.2277 62.1526 73.9542 60.5848C73.5234 60.0545 72.7441 60.0682 72.2494 60.5174C72.3681 59.6853 72.4297 59.1383 72.2144 58.4324C71.9868 57.6897 71.4093 57.2635 70.564 57.285C68.5958 57.3427 66.8624 58.7961 65.6814 60.1722C64.5573 61.4962 61.5928 62.3189 59.999 63.1174C57.2611 60.7322 51.3342 58.2013 51.1799 54.1397C51.0128 49.5628 56.4648 46.4567 60.1045 44.5992C64.8383 42.1816 72.1315 39.1733 77.5103 41.8171C78.9375 42.5187 79.5117 44.0233 79.1188 45.4646C78.0942 49.2233 73.9566 51.731 70.3576 52.8809C68.5869 53.447 66.6422 53.8683 64.7685 53.7588C62.2578 53.6119 60.3027 52.0937 60.0347 51.9994C59.8105 51.9568 59.8282 52.2467 59.8873 52.4001C62.4922 59.2287 75.6829 54.2246 79.1325 50.7189C80.7938 49.0323 81.8027 47.3978 82.2334 44.8243C82.7383 41.8074 80.5234 39.9197 78.8423 39.1415C70.3201 35.1961 58.5384 40.363 52.0944 45.6304C49.2979 47.9164 45.7996 51.5486 47.405 55.3588C49.1474 59.4938 54.4855 61.614 57.96 64.143C55.1487 65.54 51.6314 66.9849 49.8096 69.6044C48.7679 71.106 48.3984 72.7062 49.174 74.4132C50.5491 77.4284 55.549 76.1218 57.6586 74.7928C59.5913 73.5755 60.892 71.9414 61.4539 69.846C61.9412 68.0294 61.8412 66.1419 61.0322 64.4306L64.1586 62.8493C63.3168 65.3732 62.9449 68.5371 64.6925 70.8178C65.3927 71.7298 67.21 71.7666 67.9537 70.8518C68.918 69.6549 69.5576 68.1552 70.1963 66.7824C70.1217 67.8076 69.9933 68.9695 70.3469 69.8629C70.7526 70.8881 71.6731 71.0979 72.621 70.4473C75.5216 68.4564 77.3676 62.9385 78.7966 59.7218C79.1851 61.125 79.614 62.4067 80.3232 63.7004C80.4984 64.0179 80.4771 64.2226 80.2361 64.4874C79.1768 65.655 76.6458 67.6023 76.4004 69.1795C76.3431 69.5482 76.5878 69.9012 77.0223 69.9856C78.7256 70.3255 80.614 69.7087 81.9969 68.7739C83.4394 67.7981 83.9051 66.4675 83.555 64.8894C83.0545 62.6176 84.7573 60.0791 86.377 58.2143C86.6744 59.6261 87.1225 60.9849 87.9239 62.2181C86.4938 63.474 84.3604 65.2548 84.6668 67.352C84.7748 68.1029 85.4472 68.5881 86.2542 68.4169C87.9805 68.0533 89.4716 67.3108 90.5603 65.9947C91.5472 64.8074 91.1938 63.5118 90.7633 62.2065C93.3743 61.4611 96.0158 61.3121 98.6199 62.2035C99.8771 62.6312 100.89 63.352 101.491 64.4805C102.226 65.8634 101.812 67.1374 100.392 68.0466C100.032 68.2767 99.7832 68.4658 99.9048 68.5653C100.026 68.665 100.441 68.7964 101.358 68.2206C102.275 67.6445 102.835 66.8662 102.979 65.8444C103.008 65.5624 103.007 65.2781 102.976 64.9962ZM59.3535 67.7589C59.2049 69.5825 58.2995 71.0613 56.8187 72.2557C55.9856 72.9293 54.9482 73.4781 53.9181 73.5783C52.888 73.6786 52.0859 73.4185 52.0174 72.35C51.8244 69.343 56.4933 66.3974 59.0857 65.5105C59.3067 66.2608 59.415 67.0052 59.3517 67.7622L59.3535 67.7589ZM70.6303 59.8344C70.2034 62.2744 69.0082 66.6536 67.0959 68.4024C66.8382 68.6367 66.5917 68.6231 66.4605 68.318C65.3291 65.6866 66.8621 60.2605 70.0789 59.4228C70.457 59.3255 70.6916 59.4864 70.6303 59.8344ZM78.3205 68.7777C79.2417 67.7975 80.1617 66.8182 81.0843 65.8326C81.1984 66.9286 79.1625 69.1099 78.3205 68.7777ZM87.1486 66.8422C86.8918 66.9815 86.3151 67.1173 86.2925 66.9336C86.1304 65.6118 87.5849 64.213 88.4874 63.5575C88.9744 64.7981 88.3979 66.1643 87.1486 66.8422Z" fill="black"/>
</g>
<defs>
<clipPath id="clip0_64_10">
<rect width="56" height="56" fill="white" transform="translate(47 29)"/>
</clipPath>
</defs>
</svg>
