<svg width="145" height="145" viewBox="0 0 145 145" fill="none" xmlns="http://www.w3.org/2000/svg">
<path d="M70.3349 6.75C71.2972 5.08333 73.7028 5.08333 74.6651 6.75L130.524 103.5C131.486 105.167 130.283 107.25 128.359 107.25H16.6414C14.7169 107.25 13.514 105.167 14.4763 103.5L70.3349 6.75Z" stroke="#FA01FF" stroke-width="3"/>
<path d="M13.311 116.627C13.311 116.25 13.383 115.897 13.5269 115.567C13.6707 115.237 13.8654 114.949 14.1108 114.704C14.3605 114.454 14.6504 114.257 14.9805 114.113C15.3105 113.969 15.6639 113.897 16.0405 113.897H20.2173V115.719H16.0405C15.9136 115.719 15.7951 115.743 15.6851 115.789C15.575 115.836 15.4777 115.901 15.3931 115.986C15.3127 116.066 15.2492 116.161 15.2026 116.271C15.1561 116.382 15.1328 116.5 15.1328 116.627C15.1328 116.754 15.1561 116.875 15.2026 116.989C15.2492 117.099 15.3127 117.196 15.3931 117.281C15.4777 117.361 15.575 117.425 15.6851 117.471C15.7951 117.518 15.9136 117.541 16.0405 117.541H17.8623C18.2389 117.541 18.5923 117.613 18.9224 117.757C19.2567 117.896 19.5465 118.091 19.792 118.341C20.0417 118.586 20.2363 118.876 20.376 119.21C20.5199 119.541 20.5918 119.894 20.5918 120.271C20.5918 120.647 20.5199 121 20.376 121.331C20.2363 121.661 20.0417 121.951 19.792 122.2C19.5465 122.446 19.2567 122.64 18.9224 122.784C18.5923 122.928 18.2389 123 17.8623 123H13.8188V121.178H17.8623C17.9893 121.178 18.1077 121.155 18.2178 121.108C18.3278 121.062 18.423 120.998 18.5034 120.918C18.5881 120.833 18.6536 120.736 18.7002 120.626C18.7467 120.516 18.77 120.397 18.77 120.271C18.77 120.144 18.7467 120.025 18.7002 119.915C18.6536 119.805 18.5881 119.71 18.5034 119.629C18.423 119.545 18.3278 119.479 18.2178 119.433C18.1077 119.386 17.9893 119.363 17.8623 119.363H16.0405C15.6639 119.363 15.3105 119.291 14.9805 119.147C14.6504 119.003 14.3605 118.808 14.1108 118.563C13.8654 118.313 13.6707 118.023 13.5269 117.693C13.383 117.359 13.311 117.004 13.311 116.627ZM24.9019 123C24.4829 123 24.0894 122.922 23.7212 122.765C23.353 122.604 23.0293 122.386 22.75 122.111C22.4749 121.832 22.257 121.508 22.0962 121.14C21.9396 120.772 21.8613 120.378 21.8613 119.959V117.941H21.0171V116.214H21.8613V113.498H23.5879V116.214H26.2158V117.941H23.5879V119.959C23.5879 120.141 23.6217 120.313 23.6895 120.474C23.7572 120.63 23.8503 120.768 23.9688 120.886C24.0872 121.005 24.2269 121.1 24.3877 121.172C24.5485 121.24 24.7199 121.273 24.9019 121.273H26.2158V123H24.9019ZM28.8311 125.59V123.844L29.7959 123.857C29.9652 123.857 30.1281 123.829 30.2847 123.774C30.4412 123.719 30.5851 123.643 30.7163 123.546C30.8517 123.449 30.9702 123.332 31.0718 123.197C31.1733 123.066 31.2559 122.922 31.3193 122.765C31.1289 122.846 30.9342 122.926 30.7354 123.006C30.5407 123.087 30.3439 123.127 30.145 123.127C29.7261 123.127 29.3325 123.053 28.9644 122.905C28.5962 122.757 28.2725 122.547 27.9932 122.276C27.7181 122.001 27.5002 121.669 27.3394 121.28C27.1828 120.886 27.1045 120.446 27.1045 119.959V116.202H28.8311V119.959C28.8311 120.201 28.8649 120.412 28.9326 120.594C29.0046 120.772 29.0998 120.922 29.2183 121.045C29.3368 121.163 29.4743 121.252 29.6309 121.312C29.7917 121.371 29.9631 121.4 30.145 121.4C30.3228 121.4 30.4899 121.36 30.6465 121.28C30.8073 121.195 30.9469 121.085 31.0654 120.95C31.1839 120.814 31.277 120.662 31.3447 120.493C31.4124 120.319 31.4463 120.141 31.4463 119.959V116.202H33.1919V122.143C33.1877 122.621 33.0946 123.07 32.9126 123.489C32.7306 123.908 32.481 124.274 32.1636 124.587C31.8504 124.9 31.4844 125.148 31.0654 125.33C30.6465 125.512 30.1979 125.603 29.7197 125.603L28.8311 125.59ZM36.2642 123H34.5186V113.498H36.2642V123ZM40.2949 121.337C40.3626 121.358 40.4303 121.373 40.498 121.381C40.5658 121.386 40.6335 121.388 40.7012 121.388C40.8704 121.388 41.0334 121.364 41.1899 121.318C41.3465 121.271 41.4925 121.206 41.6279 121.121C41.7676 121.032 41.8903 120.926 41.9961 120.804C42.1061 120.677 42.195 120.537 42.2627 120.385L43.5322 121.661C43.3714 121.889 43.1852 122.094 42.9736 122.276C42.7663 122.458 42.5399 122.613 42.2944 122.74C42.0532 122.867 41.7972 122.962 41.5264 123.025C41.2598 123.093 40.9847 123.127 40.7012 123.127C40.223 123.127 39.7723 123.038 39.3491 122.86C38.9302 122.683 38.562 122.435 38.2446 122.118C37.9315 121.8 37.6839 121.424 37.502 120.988C37.32 120.548 37.229 120.065 37.229 119.541C37.229 119.003 37.32 118.512 37.502 118.068C37.6839 117.624 37.9315 117.245 38.2446 116.932C38.562 116.618 38.9302 116.375 39.3491 116.202C39.7723 116.028 40.223 115.941 40.7012 115.941C40.9847 115.941 41.2619 115.975 41.5327 116.043C41.8035 116.111 42.0596 116.208 42.3008 116.335C42.5462 116.462 42.7747 116.618 42.9863 116.805C43.1979 116.987 43.3841 117.192 43.5449 117.42L40.2949 121.337ZM41.1836 117.763C41.1032 117.734 41.0228 117.715 40.9424 117.706C40.8662 117.698 40.7858 117.693 40.7012 117.693C40.4642 117.693 40.2399 117.738 40.0283 117.827C39.821 117.911 39.639 118.034 39.4824 118.195C39.3301 118.356 39.2095 118.55 39.1206 118.779C39.0317 119.003 38.9873 119.257 38.9873 119.541C38.9873 119.604 38.9894 119.676 38.9937 119.756C39.0021 119.837 39.0127 119.919 39.0254 120.004C39.0423 120.084 39.0614 120.163 39.0825 120.239C39.1037 120.315 39.1312 120.383 39.165 120.442L41.1836 117.763ZM50.9399 123H50.521L49.8481 122.067C49.6831 122.215 49.5075 122.355 49.3213 122.486C49.1393 122.613 48.9468 122.725 48.7437 122.822C48.5405 122.915 48.3311 122.989 48.1152 123.044C47.9036 123.099 47.6878 123.127 47.4678 123.127C46.9896 123.127 46.5389 123.038 46.1157 122.86C45.6968 122.678 45.3286 122.429 45.0112 122.111C44.6981 121.79 44.4505 121.411 44.2686 120.975C44.0866 120.535 43.9956 120.057 43.9956 119.541C43.9956 119.028 44.0866 118.552 44.2686 118.112C44.4505 117.672 44.6981 117.291 45.0112 116.97C45.3286 116.648 45.6968 116.396 46.1157 116.214C46.5389 116.032 46.9896 115.941 47.4678 115.941C47.6201 115.941 47.7767 115.954 47.9375 115.979C48.1025 116.005 48.2612 116.047 48.4136 116.106C48.5701 116.161 48.7161 116.236 48.8516 116.329C48.987 116.422 49.1012 116.536 49.1943 116.671V113.498H50.9399V123ZM49.1943 119.541C49.1943 119.304 49.1478 119.075 49.0547 118.855C48.9658 118.631 48.8431 118.434 48.6865 118.265C48.5299 118.091 48.3459 117.954 48.1343 117.852C47.9269 117.746 47.7048 117.693 47.4678 117.693C47.2308 117.693 47.0065 117.736 46.7949 117.82C46.5876 117.905 46.4056 118.028 46.249 118.188C46.0967 118.345 45.9761 118.538 45.8872 118.766C45.7983 118.995 45.7539 119.253 45.7539 119.541C45.7539 119.79 45.7983 120.027 45.8872 120.251C45.9761 120.476 46.0967 120.673 46.249 120.842C46.4056 121.011 46.5876 121.144 46.7949 121.242C47.0065 121.339 47.2308 121.388 47.4678 121.388C47.7048 121.388 47.9269 121.337 48.1343 121.235C48.3459 121.13 48.5299 120.992 48.6865 120.823C48.8431 120.649 48.9658 120.452 49.0547 120.232C49.1478 120.008 49.1943 119.778 49.1943 119.541ZM63.3623 122.067C62.9391 122.431 62.4652 122.71 61.9404 122.905C61.4157 123.099 60.8719 123.197 60.3091 123.197C59.8774 123.197 59.4606 123.14 59.0586 123.025C58.6608 122.915 58.2863 122.759 57.9351 122.556C57.5881 122.348 57.2707 122.101 56.9829 121.813C56.6951 121.525 56.4476 121.208 56.2402 120.861C56.0371 120.51 55.8784 120.135 55.7642 119.737C55.6541 119.335 55.5991 118.918 55.5991 118.487C55.5991 118.055 55.6541 117.638 55.7642 117.236C55.8784 116.834 56.0371 116.46 56.2402 116.113C56.4476 115.762 56.6951 115.442 56.9829 115.154C57.2707 114.867 57.5881 114.621 57.9351 114.418C58.2863 114.211 58.6608 114.052 59.0586 113.942C59.4606 113.828 59.8774 113.771 60.3091 113.771C60.8719 113.771 61.4157 113.868 61.9404 114.062C62.4652 114.253 62.9391 114.532 63.3623 114.9L62.3975 116.487C62.1309 116.2 61.8156 115.979 61.4517 115.827C61.0877 115.671 60.7069 115.592 60.3091 115.592C59.9071 115.592 59.5304 115.668 59.1792 115.821C58.828 115.973 58.5212 116.181 58.2588 116.443C57.9964 116.701 57.7891 117.008 57.6367 117.363C57.4844 117.715 57.4082 118.089 57.4082 118.487C57.4082 118.885 57.4844 119.259 57.6367 119.61C57.7891 119.957 57.9964 120.262 58.2588 120.524C58.5212 120.787 58.828 120.994 59.1792 121.146C59.5304 121.299 59.9071 121.375 60.3091 121.375C60.7069 121.375 61.0877 121.299 61.4517 121.146C61.8156 120.99 62.1309 120.768 62.3975 120.48L63.3623 122.067ZM70.5669 119.541C70.5669 120.048 70.4759 120.522 70.2939 120.962C70.112 121.398 69.8644 121.777 69.5513 122.099C69.2381 122.416 68.87 122.668 68.4468 122.854C68.0278 123.036 67.5771 123.127 67.0947 123.127C66.6165 123.127 66.1659 123.036 65.7427 122.854C65.3237 122.668 64.9556 122.416 64.6382 122.099C64.325 121.777 64.0775 121.398 63.8955 120.962C63.7135 120.522 63.6226 120.048 63.6226 119.541C63.6226 119.024 63.7135 118.546 63.8955 118.106C64.0775 117.666 64.325 117.287 64.6382 116.97C64.9556 116.648 65.3237 116.396 65.7427 116.214C66.1659 116.032 66.6165 115.941 67.0947 115.941C67.5771 115.941 68.0278 116.028 68.4468 116.202C68.87 116.371 69.2381 116.614 69.5513 116.932C69.8644 117.245 70.112 117.624 70.2939 118.068C70.4759 118.508 70.5669 118.999 70.5669 119.541ZM68.8213 119.541C68.8213 119.261 68.7747 119.009 68.6816 118.785C68.5928 118.557 68.4701 118.362 68.3135 118.201C68.1569 118.036 67.9728 117.911 67.7612 117.827C67.5539 117.738 67.3317 117.693 67.0947 117.693C66.8577 117.693 66.6335 117.738 66.4219 117.827C66.2145 117.911 66.0326 118.036 65.876 118.201C65.7236 118.362 65.603 118.557 65.5142 118.785C65.4253 119.009 65.3809 119.261 65.3809 119.541C65.3809 119.803 65.4253 120.046 65.5142 120.271C65.603 120.495 65.7236 120.689 65.876 120.854C66.0326 121.02 66.2145 121.151 66.4219 121.248C66.6335 121.341 66.8577 121.388 67.0947 121.388C67.3317 121.388 67.5539 121.343 67.7612 121.254C67.9728 121.166 68.1569 121.041 68.3135 120.88C68.4701 120.719 68.5928 120.524 68.6816 120.296C68.7747 120.067 68.8213 119.816 68.8213 119.541ZM80.1709 123H78.4443V118.684C78.4443 118.565 78.4211 118.453 78.3745 118.347C78.3322 118.241 78.2708 118.148 78.1904 118.068C78.11 117.987 78.0169 117.926 77.9111 117.884C77.8053 117.837 77.6932 117.814 77.5747 117.814C77.4562 117.814 77.3441 117.837 77.2383 117.884C77.1367 117.926 77.0457 117.987 76.9653 118.068C76.8892 118.148 76.8278 118.241 76.7812 118.347C76.7389 118.453 76.7178 118.565 76.7178 118.684V123H74.9849V118.684C74.9849 118.565 74.9616 118.453 74.915 118.347C74.8727 118.241 74.8114 118.148 74.731 118.068C74.6506 117.987 74.5575 117.926 74.4517 117.884C74.3459 117.837 74.2337 117.814 74.1152 117.814C73.9967 117.814 73.8846 117.837 73.7788 117.884C73.6772 117.926 73.5863 117.987 73.5059 118.068C73.4297 118.148 73.3683 118.241 73.3218 118.347C73.2795 118.453 73.2583 118.565 73.2583 118.684V123H71.5254V116.202H71.9443L72.4141 116.722C72.6553 116.519 72.9198 116.362 73.2075 116.252C73.4995 116.138 73.8021 116.081 74.1152 116.081C74.4326 116.081 74.7415 116.14 75.042 116.259C75.3467 116.377 75.6133 116.583 75.8418 116.875C75.9476 116.731 76.0682 116.608 76.2036 116.506C76.339 116.405 76.4808 116.322 76.6289 116.259C76.7812 116.195 76.9378 116.151 77.0986 116.125C77.2594 116.096 77.4181 116.081 77.5747 116.081C77.9344 116.081 78.2708 116.149 78.584 116.284C78.9014 116.42 79.1764 116.606 79.4092 116.843C79.6462 117.076 79.8324 117.351 79.9678 117.668C80.1032 117.985 80.1709 118.324 80.1709 118.684V123ZM83.186 125.59H81.4404V116.202H81.8594L82.5513 117.021C82.7078 116.872 82.8792 116.733 83.0654 116.602C83.2516 116.47 83.4442 116.358 83.6431 116.265C83.8462 116.168 84.0557 116.092 84.2715 116.037C84.4873 115.982 84.7052 115.954 84.9253 115.954C85.4035 115.954 85.8521 116.041 86.271 116.214C86.6942 116.384 87.0623 116.625 87.3755 116.938C87.6929 117.251 87.9425 117.63 88.1245 118.074C88.3065 118.514 88.3975 119.003 88.3975 119.541C88.3975 120.099 88.3065 120.603 88.1245 121.051C87.9425 121.496 87.6929 121.874 87.3755 122.188C87.0623 122.496 86.6942 122.733 86.271 122.898C85.8521 123.063 85.4035 123.146 84.9253 123.146C84.7729 123.146 84.6206 123.129 84.4683 123.095C84.3201 123.061 84.172 123.017 84.0239 122.962C83.88 122.903 83.7362 122.837 83.5923 122.765C83.4526 122.693 83.3172 122.619 83.186 122.543V125.59ZM86.6582 119.541C86.6582 119.253 86.6117 118.995 86.5186 118.766C86.4297 118.538 86.307 118.345 86.1504 118.188C85.9938 118.028 85.8097 117.905 85.5981 117.82C85.3866 117.736 85.1623 117.693 84.9253 117.693C84.6883 117.693 84.464 117.736 84.2524 117.82C84.0451 117.905 83.8631 118.028 83.7065 118.188C83.55 118.345 83.4251 118.538 83.332 118.766C83.2432 118.995 83.1987 119.253 83.1987 119.541C83.1987 119.816 83.2432 120.067 83.332 120.296C83.4251 120.524 83.55 120.719 83.7065 120.88C83.8631 121.041 84.0451 121.166 84.2524 121.254C84.464 121.343 84.6883 121.388 84.9253 121.388C85.1623 121.388 85.3866 121.343 85.5981 121.254C85.8097 121.166 85.9938 121.041 86.1504 120.88C86.307 120.719 86.4297 120.524 86.5186 120.296C86.6117 120.067 86.6582 119.816 86.6582 119.541ZM95.9321 119.541C95.9321 120.048 95.8411 120.522 95.6592 120.962C95.4772 121.398 95.2297 121.777 94.9165 122.099C94.6034 122.416 94.2352 122.668 93.812 122.854C93.3931 123.036 92.9424 123.127 92.46 123.127C91.9818 123.127 91.5311 123.036 91.1079 122.854C90.689 122.668 90.3208 122.416 90.0034 122.099C89.6903 121.777 89.4427 121.398 89.2607 120.962C89.0788 120.522 88.9878 120.048 88.9878 119.541C88.9878 119.024 89.0788 118.546 89.2607 118.106C89.4427 117.666 89.6903 117.287 90.0034 116.97C90.3208 116.648 90.689 116.396 91.1079 116.214C91.5311 116.032 91.9818 115.941 92.46 115.941C92.9424 115.941 93.3931 116.028 93.812 116.202C94.2352 116.371 94.6034 116.614 94.9165 116.932C95.2297 117.245 95.4772 117.624 95.6592 118.068C95.8411 118.508 95.9321 118.999 95.9321 119.541ZM94.1865 119.541C94.1865 119.261 94.14 119.009 94.0469 118.785C93.958 118.557 93.8353 118.362 93.6787 118.201C93.5221 118.036 93.3381 117.911 93.1265 117.827C92.9191 117.738 92.6969 117.693 92.46 117.693C92.223 117.693 91.9987 117.738 91.7871 117.827C91.5798 117.911 91.3978 118.036 91.2412 118.201C91.0889 118.362 90.9683 118.557 90.8794 118.785C90.7905 119.009 90.7461 119.261 90.7461 119.541C90.7461 119.803 90.7905 120.046 90.8794 120.271C90.9683 120.495 91.0889 120.689 91.2412 120.854C91.3978 121.02 91.5798 121.151 91.7871 121.248C91.9987 121.341 92.223 121.388 92.46 121.388C92.6969 121.388 92.9191 121.343 93.1265 121.254C93.3381 121.166 93.5221 121.041 93.6787 120.88C93.8353 120.719 93.958 120.524 94.0469 120.296C94.14 120.067 94.1865 119.816 94.1865 119.541ZM98.6235 123H96.8906V116.202H97.3096L97.8809 116.862C98.1602 116.608 98.4754 116.413 98.8267 116.278C99.1821 116.138 99.5524 116.068 99.9375 116.068C100.352 116.068 100.744 116.149 101.112 116.31C101.48 116.466 101.802 116.684 102.077 116.963C102.352 117.238 102.568 117.562 102.724 117.935C102.885 118.303 102.965 118.696 102.965 119.115V123H101.232V119.115C101.232 118.938 101.199 118.77 101.131 118.614C101.063 118.453 100.97 118.313 100.852 118.195C100.733 118.076 100.596 117.983 100.439 117.916C100.282 117.848 100.115 117.814 99.9375 117.814C99.7555 117.814 99.5841 117.848 99.4233 117.916C99.2625 117.983 99.1229 118.076 99.0044 118.195C98.8859 118.313 98.7928 118.453 98.7251 118.614C98.6574 118.77 98.6235 118.938 98.6235 119.115V123ZM106.907 121.337C106.975 121.358 107.043 121.373 107.11 121.381C107.178 121.386 107.246 121.388 107.313 121.388C107.483 121.388 107.646 121.364 107.802 121.318C107.959 121.271 108.105 121.206 108.24 121.121C108.38 121.032 108.503 120.926 108.608 120.804C108.718 120.677 108.807 120.537 108.875 120.385L110.145 121.661C109.984 121.889 109.798 122.094 109.586 122.276C109.379 122.458 109.152 122.613 108.907 122.74C108.666 122.867 108.41 122.962 108.139 123.025C107.872 123.093 107.597 123.127 107.313 123.127C106.835 123.127 106.385 123.038 105.961 122.86C105.542 122.683 105.174 122.435 104.857 122.118C104.544 121.8 104.296 121.424 104.114 120.988C103.932 120.548 103.841 120.065 103.841 119.541C103.841 119.003 103.932 118.512 104.114 118.068C104.296 117.624 104.544 117.245 104.857 116.932C105.174 116.618 105.542 116.375 105.961 116.202C106.385 116.028 106.835 115.941 107.313 115.941C107.597 115.941 107.874 115.975 108.145 116.043C108.416 116.111 108.672 116.208 108.913 116.335C109.159 116.462 109.387 116.618 109.599 116.805C109.81 116.987 109.996 117.192 110.157 117.42L106.907 121.337ZM107.796 117.763C107.715 117.734 107.635 117.715 107.555 117.706C107.479 117.698 107.398 117.693 107.313 117.693C107.076 117.693 106.852 117.738 106.641 117.827C106.433 117.911 106.251 118.034 106.095 118.195C105.942 118.356 105.822 118.55 105.733 118.779C105.644 119.003 105.6 119.257 105.6 119.541C105.6 119.604 105.602 119.676 105.606 119.756C105.614 119.837 105.625 119.919 105.638 120.004C105.655 120.084 105.674 120.163 105.695 120.239C105.716 120.315 105.743 120.383 105.777 120.442L107.796 117.763ZM112.766 123H111.033V116.202H111.452L112.023 116.862C112.303 116.608 112.618 116.413 112.969 116.278C113.325 116.138 113.695 116.068 114.08 116.068C114.495 116.068 114.886 116.149 115.254 116.31C115.623 116.466 115.944 116.684 116.219 116.963C116.494 117.238 116.71 117.562 116.867 117.935C117.028 118.303 117.108 118.696 117.108 119.115V123H115.375V119.115C115.375 118.938 115.341 118.77 115.273 118.614C115.206 118.453 115.113 118.313 114.994 118.195C114.876 118.076 114.738 117.983 114.582 117.916C114.425 117.848 114.258 117.814 114.08 117.814C113.898 117.814 113.727 117.848 113.566 117.916C113.405 117.983 113.265 118.076 113.147 118.195C113.028 118.313 112.935 118.453 112.868 118.614C112.8 118.77 112.766 118.938 112.766 119.115V123ZM121.666 123C121.247 123 120.853 122.922 120.485 122.765C120.117 122.604 119.793 122.386 119.514 122.111C119.239 121.832 119.021 121.508 118.86 121.14C118.703 120.772 118.625 120.378 118.625 119.959V117.941H117.781V116.214H118.625V113.498H120.352V116.214H122.979V117.941H120.352V119.959C120.352 120.141 120.385 120.313 120.453 120.474C120.521 120.63 120.614 120.768 120.732 120.886C120.851 121.005 120.991 121.1 121.151 121.172C121.312 121.24 121.484 121.273 121.666 121.273H122.979V123H121.666ZM127.689 123H123.729V121.273H127.689C127.808 121.273 127.91 121.231 127.994 121.146C128.079 121.062 128.121 120.96 128.121 120.842C128.121 120.719 128.079 120.639 127.994 120.601C127.91 120.562 127.808 120.543 127.689 120.543H125.887C125.586 120.543 125.305 120.486 125.042 120.372C124.78 120.258 124.552 120.103 124.357 119.909C124.162 119.71 124.008 119.479 123.894 119.217C123.784 118.954 123.729 118.673 123.729 118.373C123.729 118.072 123.784 117.791 123.894 117.528C124.008 117.266 124.162 117.037 124.357 116.843C124.552 116.648 124.78 116.496 125.042 116.386C125.305 116.271 125.586 116.214 125.887 116.214H129.397V117.941H125.887C125.768 117.941 125.667 117.983 125.582 118.068C125.497 118.153 125.455 118.254 125.455 118.373C125.455 118.495 125.497 118.601 125.582 118.69C125.667 118.775 125.768 118.817 125.887 118.817H127.689C127.986 118.817 128.265 118.868 128.527 118.969C128.79 119.067 129.018 119.204 129.213 119.382C129.408 119.56 129.562 119.773 129.676 120.023C129.791 120.273 129.848 120.546 129.848 120.842C129.848 121.142 129.791 121.424 129.676 121.686C129.562 121.944 129.408 122.173 129.213 122.372C129.018 122.566 128.79 122.721 128.527 122.835C128.265 122.945 127.986 123 127.689 123Z" fill="white"/>
<rect x="38" y="25" width="68" height="68" rx="13" fill="white"/>
<g clip-path="url(#clip0_64_14)">
<path d="M81.5083 45.0598L81.3301 45.9884C81.0546 47.7483 81.1544 48.2518 81.9096 48.9049L82.6388 49.5081L81.8835 52.8759C81.4323 54.8851 80.8789 56.569 80.5274 57.1224C80.2257 57.5998 79.8743 58.3028 79.7983 58.6804C79.6724 59.1316 79.2449 59.5853 78.5918 59.9866C78.0146 60.3144 76.8818 61.1931 76.079 61.8985C75.4378 62.4756 74.996 62.8295 74.7561 62.9815L73.9724 63.6014C73.7206 64.0051 73.5781 64.3305 73.5235 64.5775C73.4689 64.8316 73.4998 65.0003 73.5805 65.1238C73.6589 65.2425 73.7942 65.3256 73.9795 65.3779C74.1988 65.4293 74.4245 65.4477 74.6493 65.4325C75.1577 65.3978 75.6609 65.3086 76.1502 65.1665C76.3165 65.1214 76.4471 65.0786 76.5611 65.0406C76.7369 64.8245 77.143 64.416 77.8626 63.7059C79.7721 61.8225 80.5012 60.7918 79.7484 61.0696C79.4705 61.1694 79.5964 60.9176 80.0737 60.4141C81.0807 59.4333 81.6579 57.9513 82.8644 53.3034C83.8191 49.634 83.8191 49.5818 84.5221 49.5818C84.8522 49.5818 85.7856 49.6388 85.7856 49.6388V45.0598H83.6434H81.5083ZM90.6259 52.5766C90.4739 52.5766 90.2221 52.8046 90.0725 53.0564C89.797 53.5076 90.1224 53.7831 94.2691 56.3719C96.732 57.9323 98.7175 59.2623 98.6676 59.3644C98.6177 59.438 96.6061 60.7466 94.1955 62.2548C89.8208 64.967 89.797 64.9931 90.1984 65.5465C90.7019 66.1996 90.1984 66.4253 95.877 62.8818L100 60.2431V58.2576L95.3996 55.4171C92.913 53.8591 90.7517 52.6028 90.6259 52.5766ZM52.424 52.8545C52.2981 52.8545 50.1369 54.137 47.6502 55.6689L43 58.5094V60.4949L47.6241 63.3853C50.1891 64.967 52.3504 66.2756 52.4501 66.2756C52.5499 66.2756 52.7517 66.0476 52.9536 65.7721C53.2552 65.2948 53.0011 65.0929 48.7546 62.4044C44.71 59.8655 44.2825 59.514 44.6862 59.2385C44.938 59.0628 46.8475 57.88 48.909 56.5999C53.6091 53.7095 53.3574 53.909 52.9798 53.3058C52.8301 53.0564 52.576 52.8308 52.4264 52.8545H52.424ZM73.0485 52.9091C72.355 52.9044 70.8635 53.9613 66.3985 57.6069C66.2061 58.0653 66.1895 58.3811 66.2774 58.5854C66.3344 58.7255 66.4389 58.8229 66.5838 58.8941C66.7263 58.9654 66.9115 59.0081 67.1158 59.0248C67.5219 59.0604 68.0016 58.9963 68.3887 58.9203L68.65 58.8609C68.7394 58.741 68.8568 58.6447 68.992 58.5806C69.2675 58.4286 70.4241 57.3741 71.5808 56.2436C73.6161 54.1821 74.0935 53.2511 73.2646 52.9495C73.1966 52.9224 73.1217 52.9087 73.0485 52.9091ZM78.264 54.3413C77.6536 54.3579 76.554 55.0656 74.6706 56.569C73.7254 57.3361 73.1269 57.7494 72.8062 57.8349L71.5618 58.8181C71.0939 59.6731 71.025 60.2028 71.1485 60.4949C71.1794 60.5669 71.2243 60.6322 71.2805 60.6868C71.3368 60.7414 71.4033 60.7844 71.4762 60.8131C71.6577 60.8848 71.8512 60.9211 72.0462 60.92C72.5124 60.915 72.9758 60.8471 73.4238 60.7181C73.6572 60.6555 73.8878 60.5826 74.1149 60.4996L74.1838 60.4711L74.3096 60.4046C74.5471 60.0983 75.0934 59.5211 75.7774 58.8561C77.9386 56.7709 79.043 55.2889 78.8174 54.7355C78.7153 54.4671 78.5395 54.3318 78.264 54.3413ZM72.507 56.9063C72.3312 56.9253 71.937 57.2293 71.2269 57.8515C70.2009 58.7588 69.0823 59.2813 68.6951 59.0485C68.6052 59.0688 68.5149 59.0878 68.4244 59.1055C68.0301 59.1839 67.5385 59.248 67.0991 59.2124C66.8921 59.1998 66.6892 59.1491 66.5006 59.0628C66.3228 58.9814 66.1808 58.8378 66.1016 58.659C66.0138 58.4453 66.0138 58.1793 66.1135 57.8396L64.5697 59.1079L61.0761 61.9983V66.6841L72.5236 57.6663C72.5214 57.5675 72.5342 57.469 72.5616 57.3741C72.6495 57.0559 72.6447 56.8944 72.507 56.9086V56.9063ZM77.4328 58.4239C77.2594 58.4239 76.9696 58.6685 76.5065 59.1601C75.8771 59.8323 74.8867 60.483 74.3619 60.616L74.2811 60.6588C74.195 60.6943 74.1078 60.7276 74.0199 60.7585C73.8774 60.806 73.6921 60.863 73.4784 60.92C73.0509 61.0364 72.5189 61.1433 72.0439 61.1314C71.8199 61.1311 71.5982 61.0875 71.3908 61.0031C71.1953 60.9226 71.0386 60.7693 70.9538 60.5756C70.816 60.2455 70.8706 59.7824 71.1723 59.1245L61.0737 67.0784V69.9403H65.5103L74.92 62.5493C75.1646 62.2785 75.5327 61.908 76.0291 61.4449C77.3591 60.2123 77.6608 59.7871 77.6608 59.1578C77.6608 58.6685 77.6061 58.4215 77.4328 58.4215V58.4239ZM79.6724 63.0551L78.8673 63.8579C78.416 64.2854 77.6109 64.8126 77.0599 65.0383L76.9506 65.0858L76.9435 65.0976L76.9198 65.1214C76.8984 65.138 76.8889 65.1404 76.8722 65.1475C76.6523 65.2308 76.4288 65.3044 76.2025 65.3684C75.6993 65.5149 75.1817 65.6064 74.6588 65.6415C74.4115 65.6574 74.1633 65.6357 73.9225 65.5774C73.7135 65.5314 73.5291 65.4095 73.4048 65.2354C73.2908 65.0596 73.2575 64.8245 73.3216 64.5348C73.3726 64.3285 73.4484 64.1291 73.5473 63.941L65.9544 69.9403H76.0529L77.2594 68.558C78.9171 66.6248 79.6724 65.2425 79.6724 64.0598V63.0551Z" fill="black"/>
</g>
<defs>
<clipPath id="clip0_64_14">
<rect width="57" height="57" fill="white" transform="translate(43 29)"/>
</clipPath>
</defs>
</svg>
