<svg width="145" height="145" viewBox="0 0 145 145" fill="none" xmlns="http://www.w3.org/2000/svg">
<path d="M70.3349 6.75C71.2972 5.08333 73.7028 5.08333 74.6651 6.75L130.524 103.5C131.486 105.167 130.283 107.25 128.359 107.25H16.6414C14.7169 107.25 13.514 105.167 14.4763 103.5L70.3349 6.75Z" stroke="#FA01FF" stroke-width="3"/>
<path d="M37.6655 122H35.8501V114.719H33.1143V112.897H40.395V114.719H37.6655V122ZM46.6919 122H46.2729L45.6001 121.067C45.4351 121.215 45.2594 121.355 45.0732 121.486C44.8913 121.613 44.6987 121.725 44.4956 121.822C44.2925 121.915 44.083 121.989 43.8672 122.044C43.6556 122.099 43.4398 122.127 43.2197 122.127C42.7415 122.127 42.2909 122.047 41.8677 121.886C41.4487 121.725 41.0806 121.492 40.7632 121.188C40.45 120.879 40.2025 120.502 40.0205 120.058C39.8385 119.613 39.7476 119.108 39.7476 118.541C39.7476 118.012 39.8385 117.527 40.0205 117.087C40.2025 116.643 40.45 116.262 40.7632 115.944C41.0806 115.627 41.4487 115.382 41.8677 115.208C42.2909 115.03 42.7415 114.941 43.2197 114.941C43.4398 114.941 43.6577 114.969 43.8735 115.024C44.0894 115.079 44.2988 115.155 44.502 115.252C44.7051 115.35 44.8976 115.464 45.0796 115.595C45.2658 115.726 45.4393 115.868 45.6001 116.021L46.2729 115.214H46.6919V122ZM44.9463 118.541C44.9463 118.304 44.8997 118.075 44.8066 117.855C44.7178 117.631 44.5951 117.434 44.4385 117.265C44.2819 117.091 44.0978 116.954 43.8862 116.852C43.6789 116.746 43.4567 116.693 43.2197 116.693C42.9827 116.693 42.7585 116.734 42.5469 116.814C42.3395 116.894 42.1576 117.013 42.001 117.169C41.8486 117.326 41.728 117.521 41.6392 117.753C41.5503 117.982 41.5059 118.244 41.5059 118.541C41.5059 118.837 41.5503 119.101 41.6392 119.334C41.728 119.562 41.8486 119.755 42.001 119.912C42.1576 120.068 42.3395 120.187 42.5469 120.267C42.7585 120.347 42.9827 120.388 43.2197 120.388C43.4567 120.388 43.6789 120.337 43.8862 120.235C44.0978 120.13 44.2819 119.992 44.4385 119.823C44.5951 119.649 44.7178 119.452 44.8066 119.232C44.8997 119.008 44.9463 118.778 44.9463 118.541ZM50.0625 113.354C50.0625 113.515 50.0308 113.666 49.9673 113.805C49.908 113.945 49.8255 114.068 49.7197 114.173C49.6139 114.275 49.4891 114.357 49.3452 114.421C49.2056 114.48 49.0553 114.51 48.8945 114.51C48.7337 114.51 48.5814 114.48 48.4375 114.421C48.2979 114.357 48.1751 114.275 48.0693 114.173C47.9678 114.068 47.8853 113.945 47.8218 113.805C47.7625 113.666 47.7329 113.515 47.7329 113.354C47.7329 113.198 47.7625 113.05 47.8218 112.91C47.8853 112.766 47.9678 112.644 48.0693 112.542C48.1751 112.436 48.2979 112.354 48.4375 112.294C48.5814 112.231 48.7337 112.199 48.8945 112.199C49.0553 112.199 49.2056 112.231 49.3452 112.294C49.4891 112.354 49.6139 112.436 49.7197 112.542C49.8255 112.644 49.908 112.766 49.9673 112.91C50.0308 113.05 50.0625 113.198 50.0625 113.354ZM49.7642 122H48.0186V115.202H49.7642V122ZM52.8364 122H51.0908V112.498H52.8364V122ZM62.7451 119.543C62.7451 119.899 62.6774 120.235 62.542 120.553C62.4066 120.866 62.2204 121.139 61.9834 121.372C61.7507 121.604 61.4756 121.788 61.1582 121.924C60.8451 122.059 60.5086 122.127 60.1489 122.127C59.8273 122.127 59.5184 122.072 59.2222 121.962C58.9259 121.848 58.6572 121.683 58.416 121.467C58.179 121.683 57.9124 121.848 57.6162 121.962C57.3242 122.072 57.0153 122.127 56.6895 122.127C56.3298 122.127 55.9933 122.059 55.6802 121.924C55.367 121.788 55.092 121.604 54.855 121.372C54.6222 121.139 54.4382 120.866 54.3027 120.553C54.1673 120.235 54.0996 119.899 54.0996 119.543V115.214H55.8325V119.543C55.8325 119.662 55.8537 119.774 55.896 119.88C55.9425 119.981 56.0039 120.072 56.0801 120.153C56.1605 120.229 56.2515 120.29 56.353 120.337C56.4588 120.379 56.571 120.4 56.6895 120.4C56.8079 120.4 56.9201 120.379 57.0259 120.337C57.1317 120.29 57.2248 120.229 57.3052 120.153C57.3856 120.072 57.4469 119.981 57.4893 119.88C57.5358 119.774 57.5591 119.662 57.5591 119.543V115.214H59.2856V119.543C59.2856 119.662 59.3089 119.774 59.3555 119.88C59.402 119.981 59.4634 120.072 59.5396 120.153C59.62 120.229 59.7109 120.29 59.8125 120.337C59.9183 120.379 60.0304 120.4 60.1489 120.4C60.2674 120.4 60.3796 120.379 60.4854 120.337C60.5911 120.29 60.6821 120.229 60.7583 120.153C60.8387 120.072 60.9022 119.981 60.9487 119.88C60.9953 119.774 61.0186 119.662 61.0186 119.543V115.214H62.7451V119.543ZM66.0459 113.354C66.0459 113.515 66.0142 113.666 65.9507 113.805C65.8914 113.945 65.8089 114.068 65.7031 114.173C65.5973 114.275 65.4725 114.357 65.3286 114.421C65.189 114.48 65.0387 114.51 64.8779 114.51C64.7171 114.51 64.5648 114.48 64.4209 114.421C64.2812 114.357 64.1585 114.275 64.0527 114.173C63.9512 114.068 63.8687 113.945 63.8052 113.805C63.7459 113.666 63.7163 113.515 63.7163 113.354C63.7163 113.198 63.7459 113.05 63.8052 112.91C63.8687 112.766 63.9512 112.644 64.0527 112.542C64.1585 112.436 64.2812 112.354 64.4209 112.294C64.5648 112.231 64.7171 112.199 64.8779 112.199C65.0387 112.199 65.189 112.231 65.3286 112.294C65.4725 112.354 65.5973 112.436 65.7031 112.542C65.8089 112.644 65.8914 112.766 65.9507 112.91C66.0142 113.05 66.0459 113.198 66.0459 113.354ZM65.7476 122H64.002V115.202H65.7476V122ZM68.8071 122H67.0742V115.202H67.4932L68.0645 115.862C68.3438 115.608 68.659 115.413 69.0103 115.278C69.3657 115.138 69.736 115.068 70.1211 115.068C70.5358 115.068 70.9272 115.149 71.2954 115.31C71.6636 115.466 71.9852 115.684 72.2603 115.963C72.5353 116.238 72.7511 116.562 72.9077 116.935C73.0685 117.303 73.1489 117.696 73.1489 118.115V122H71.416V118.115C71.416 117.938 71.3822 117.77 71.3145 117.614C71.2467 117.453 71.1536 117.313 71.0352 117.195C70.9167 117.076 70.7791 116.983 70.6226 116.916C70.466 116.848 70.2988 116.814 70.1211 116.814C69.9391 116.814 69.7677 116.848 69.6069 116.916C69.4461 116.983 69.3065 117.076 69.188 117.195C69.0695 117.313 68.9764 117.453 68.9087 117.614C68.841 117.77 68.8071 117.938 68.8071 118.115V122ZM80.9565 122H80.5376L79.8647 121.067C79.6997 121.215 79.5241 121.355 79.3379 121.486C79.1559 121.613 78.9634 121.725 78.7603 121.822C78.5571 121.915 78.3477 121.989 78.1318 122.044C77.9202 122.099 77.7044 122.127 77.4844 122.127C77.0062 122.127 76.5555 122.038 76.1323 121.86C75.7134 121.678 75.3452 121.429 75.0278 121.111C74.7147 120.79 74.4671 120.411 74.2852 119.975C74.1032 119.535 74.0122 119.057 74.0122 118.541C74.0122 118.028 74.1032 117.552 74.2852 117.112C74.4671 116.672 74.7147 116.291 75.0278 115.97C75.3452 115.648 75.7134 115.396 76.1323 115.214C76.5555 115.032 77.0062 114.941 77.4844 114.941C77.6367 114.941 77.7933 114.954 77.9541 114.979C78.1191 115.005 78.2778 115.047 78.4302 115.106C78.5868 115.161 78.7327 115.236 78.8682 115.329C79.0036 115.422 79.1178 115.536 79.2109 115.671V112.498H80.9565V122ZM79.2109 118.541C79.2109 118.304 79.1644 118.075 79.0713 117.855C78.9824 117.631 78.8597 117.434 78.7031 117.265C78.5465 117.091 78.3625 116.954 78.1509 116.852C77.9435 116.746 77.7214 116.693 77.4844 116.693C77.2474 116.693 77.0231 116.736 76.8115 116.82C76.6042 116.905 76.4222 117.028 76.2656 117.188C76.1133 117.345 75.9927 117.538 75.9038 117.766C75.8149 117.995 75.7705 118.253 75.7705 118.541C75.7705 118.79 75.8149 119.027 75.9038 119.251C75.9927 119.476 76.1133 119.673 76.2656 119.842C76.4222 120.011 76.6042 120.144 76.8115 120.242C77.0231 120.339 77.2474 120.388 77.4844 120.388C77.7214 120.388 77.9435 120.337 78.1509 120.235C78.3625 120.13 78.5465 119.992 78.7031 119.823C78.8597 119.649 78.9824 119.452 79.0713 119.232C79.1644 119.008 79.2109 118.778 79.2109 118.541ZM93.3789 121.067C92.9557 121.431 92.4818 121.71 91.957 121.905C91.4323 122.099 90.8885 122.197 90.3257 122.197C89.894 122.197 89.4772 122.14 89.0752 122.025C88.6774 121.915 88.3029 121.759 87.9517 121.556C87.6047 121.348 87.2873 121.101 86.9995 120.813C86.7118 120.525 86.4642 120.208 86.2568 119.861C86.0537 119.51 85.895 119.135 85.7808 118.737C85.6707 118.335 85.6157 117.918 85.6157 117.487C85.6157 117.055 85.6707 116.638 85.7808 116.236C85.895 115.834 86.0537 115.46 86.2568 115.113C86.4642 114.762 86.7118 114.442 86.9995 114.154C87.2873 113.867 87.6047 113.621 87.9517 113.418C88.3029 113.211 88.6774 113.052 89.0752 112.942C89.4772 112.828 89.894 112.771 90.3257 112.771C90.8885 112.771 91.4323 112.868 91.957 113.062C92.4818 113.253 92.9557 113.532 93.3789 113.9L92.4141 115.487C92.1475 115.2 91.8322 114.979 91.4683 114.827C91.1043 114.671 90.7235 114.592 90.3257 114.592C89.9237 114.592 89.547 114.668 89.1958 114.821C88.8446 114.973 88.5378 115.181 88.2754 115.443C88.013 115.701 87.8057 116.008 87.6533 116.363C87.501 116.715 87.4248 117.089 87.4248 117.487C87.4248 117.885 87.501 118.259 87.6533 118.61C87.8057 118.957 88.013 119.262 88.2754 119.524C88.5378 119.787 88.8446 119.994 89.1958 120.146C89.547 120.299 89.9237 120.375 90.3257 120.375C90.7235 120.375 91.1043 120.299 91.4683 120.146C91.8322 119.99 92.1475 119.768 92.4141 119.48L93.3789 121.067ZM93.7915 115.627C93.7915 115.25 93.8634 114.897 94.0073 114.567C94.1512 114.237 94.3459 113.949 94.5913 113.704C94.841 113.454 95.1309 113.257 95.4609 113.113C95.791 112.969 96.1444 112.897 96.521 112.897H100.698V114.719H96.521C96.394 114.719 96.2756 114.743 96.1655 114.789C96.0555 114.836 95.9582 114.901 95.8735 114.986C95.7931 115.066 95.7297 115.161 95.6831 115.271C95.6366 115.382 95.6133 115.5 95.6133 115.627C95.6133 115.754 95.6366 115.875 95.6831 115.989C95.7297 116.099 95.7931 116.196 95.8735 116.281C95.9582 116.361 96.0555 116.425 96.1655 116.471C96.2756 116.518 96.394 116.541 96.521 116.541H98.3428C98.7194 116.541 99.0728 116.613 99.4028 116.757C99.7371 116.896 100.027 117.091 100.272 117.341C100.522 117.586 100.717 117.876 100.856 118.21C101 118.541 101.072 118.894 101.072 119.271C101.072 119.647 101 120 100.856 120.331C100.717 120.661 100.522 120.951 100.272 121.2C100.027 121.446 99.7371 121.64 99.4028 121.784C99.0728 121.928 98.7194 122 98.3428 122H94.2993V120.178H98.3428C98.4697 120.178 98.5882 120.155 98.6982 120.108C98.8083 120.062 98.9035 119.998 98.9839 119.918C99.0685 119.833 99.1341 119.736 99.1807 119.626C99.2272 119.516 99.2505 119.397 99.2505 119.271C99.2505 119.144 99.2272 119.025 99.1807 118.915C99.1341 118.805 99.0685 118.71 98.9839 118.629C98.9035 118.545 98.8083 118.479 98.6982 118.433C98.5882 118.386 98.4697 118.363 98.3428 118.363H96.521C96.1444 118.363 95.791 118.291 95.4609 118.147C95.1309 118.003 94.841 117.808 94.5913 117.563C94.3459 117.313 94.1512 117.023 94.0073 116.693C93.8634 116.359 93.7915 116.004 93.7915 115.627ZM101.739 115.627C101.739 115.25 101.811 114.897 101.955 114.567C102.098 114.237 102.293 113.949 102.539 113.704C102.788 113.454 103.078 113.257 103.408 113.113C103.738 112.969 104.092 112.897 104.468 112.897H108.645V114.719H104.468C104.341 114.719 104.223 114.743 104.113 114.789C104.003 114.836 103.905 114.901 103.821 114.986C103.74 115.066 103.677 115.161 103.63 115.271C103.584 115.382 103.561 115.5 103.561 115.627C103.561 115.754 103.584 115.875 103.63 115.989C103.677 116.099 103.74 116.196 103.821 116.281C103.905 116.361 104.003 116.425 104.113 116.471C104.223 116.518 104.341 116.541 104.468 116.541H106.29C106.667 116.541 107.02 116.613 107.35 116.757C107.684 116.896 107.974 117.091 108.22 117.341C108.469 117.586 108.664 117.876 108.804 118.21C108.948 118.541 109.02 118.894 109.02 119.271C109.02 119.647 108.948 120 108.804 120.331C108.664 120.661 108.469 120.951 108.22 121.2C107.974 121.446 107.684 121.64 107.35 121.784C107.02 121.928 106.667 122 106.29 122H102.247V120.178H106.29C106.417 120.178 106.535 120.155 106.646 120.108C106.756 120.062 106.851 119.998 106.931 119.918C107.016 119.833 107.081 119.736 107.128 119.626C107.174 119.516 107.198 119.397 107.198 119.271C107.198 119.144 107.174 119.025 107.128 118.915C107.081 118.805 107.016 118.71 106.931 118.629C106.851 118.545 106.756 118.479 106.646 118.433C106.535 118.386 106.417 118.363 106.29 118.363H104.468C104.092 118.363 103.738 118.291 103.408 118.147C103.078 118.003 102.788 117.808 102.539 117.563C102.293 117.313 102.098 117.023 101.955 116.693C101.811 116.359 101.739 116.004 101.739 115.627Z" fill="white"/>
<rect x="39" y="24" width="68" height="68" rx="13" fill="white"/>
<g clip-path="url(#clip0_64_26)">
<path d="M72.5022 41.6C65.4355 41.6 61.0189 45.1333 59.2522 52.2C61.9022 48.6666 64.9939 47.3416 68.5272 48.225C70.5434 48.7285 71.9833 50.1904 73.5799 51.8113C76.1791 54.4481 79.1846 57.5 85.7522 57.5C92.8189 57.5 97.2355 53.9666 99.0022 46.9C96.3522 50.4333 93.2605 51.7583 89.7272 50.875C87.711 50.3715 86.2712 48.9096 84.6745 47.2886C82.0775 44.6519 79.072 41.6 72.5022 41.6ZM59.2522 57.5C52.1855 57.5 47.7689 61.0333 46.0022 68.1C48.6522 64.5666 51.7439 63.2416 55.2772 64.125C57.2934 64.6285 58.7333 66.0904 60.3299 67.7113C62.9291 70.3481 65.9346 73.4 72.5022 73.4C79.5689 73.4 83.9855 69.8666 85.7522 62.8C83.1022 66.3333 80.0105 67.6583 76.4772 66.775C74.461 66.2715 73.0212 64.8096 71.4245 63.1886C68.8275 60.5519 65.822 57.5 59.2522 57.5Z" fill="black"/>
</g>
<defs>
<clipPath id="clip0_64_26">
<rect width="53" height="53" fill="white" transform="translate(46 31)"/>
</clipPath>
</defs>
</svg>
